<svg xmlns="http://www.w3.org/2000/svg" version="1.1" xmlns:xlink="http://www.w3.org/1999/xlink" xmlns:svgjs="http://svgjs.com/svgjs" width="1440" height="870" preserveAspectRatio="none" viewBox="0 0 1440 870"><g mask="url(&quot;#SvgjsMask1008&quot;)" fill="none"><circle r="8.18" cx="133.13" cy="72.9" filter="url(#SvgjsFilter1009)" fill="rgba(250, 112, 154, 1)"></circle><circle r="13.08" cx="270.64" cy="415.55" filter="url(#SvgjsFilter1009)" fill="rgba(250, 112, 154, 1)"></circle><circle r="8.85" cx="260.3" cy="553.5600000000001" filter="url(#SvgjsFilter1009)" fill="rgba(120, 75, 168, 1)"></circle><circle r="11.04" cx="487.04" cy="631.88" filter="url(#SvgjsFilter1009)" fill="rgba(250, 112, 154, 1)"></circle><circle r="9.96" cx="1243.64" cy="805.99" filter="url(#SvgjsFilter1009)" fill="rgba(120, 75, 168, 1)"></circle><circle r="12.48" cx="1029.8899999999999" cy="268.88" filter="url(#SvgjsFilter1009)" fill="rgba(92, 157, 241, 1)"></circle><circle r="8.92" cx="553.27" cy="209.57999999999998" filter="url(#SvgjsFilter1009)" fill="rgba(250, 112, 154, 1)"></circle><circle r="9.79" cx="709.28" cy="783.6899999999999" filter="url(#SvgjsFilter1009)" fill="rgba(250, 112, 154, 1)"></circle><circle r="11.18" cx="121.75" cy="635.17" filter="url(#SvgjsFilter1009)" fill="rgba(250, 112, 154, 1)"></circle><circle r="11.635" cx="1364.795" cy="811.145" filter="url(#SvgjsFilter1009)" fill="rgba(120, 75, 168, 1)"></circle><circle r="9.6" cx="1096.86" cy="397.91" filter="url(#SvgjsFilter1009)" fill="rgba(120, 75, 168, 1)"></circle><circle r="7.525" cx="236.535" cy="43.025" filter="url(#SvgjsFilter1009)" fill="rgba(92, 157, 241, 1)"></circle><circle r="10.4" cx="526.09" cy="223.73000000000002" filter="url(#SvgjsFilter1009)" fill="rgba(43, 134, 197, 1)"></circle><circle r="12.205" cx="892.1850000000001" cy="114.30499999999999" filter="url(#SvgjsFilter1009)" fill="rgba(120, 75, 168, 1)"></circle><circle r="8.58" cx="1071.76" cy="82.89999999999999" filter="url(#SvgjsFilter1009)" fill="rgba(250, 112, 154, 1)"></circle><circle r="7.82" cx="990.33" cy="798.5400000000001" filter="url(#SvgjsFilter1009)" fill="rgba(92, 157, 241, 1)"></circle><circle r="9.425" cx="1087.145" cy="322.605" filter="url(#SvgjsFilter1009)" fill="rgba(250, 112, 154, 1)"></circle><circle r="10.97" cx="1324.25" cy="769.9300000000001" filter="url(#SvgjsFilter1009)" fill="rgba(120, 75, 168, 1)"></circle><circle r="13.65" cx="88.26" cy="467.57" filter="url(#SvgjsFilter1009)" fill="rgba(43, 134, 197, 1)"></circle><circle r="10.645" cx="661.365" cy="213.835" filter="url(#SvgjsFilter1009)" fill="rgba(250, 112, 154, 1)"></circle><path d="M1348.2 710.6L1378.9 719.2 1384.4 729.4 1374.1 726.5C1373.1 725.9 1372.1 726.7 1371.5 727.8 1371.4 728.7 1372 730 1372.9 730L1387.1 734.3 1392.9 744.2 1381.4 743.9 1371.1 733.1C1371.1 733.1 1370.7 732.9 1370.7 732.9 1370.1 732.5 1369 732.8 1368.2 733.3 1367.6 734.3 1367.5 735.2 1368.3 736.1L1375.8 743.9 1364.4 743.6 1342 720.9C1342 720.9 1341.9 720.4 1341.9 720.4 1341.2 719.9 1340.1 720.2 1339.4 720.7 1338.4 721.5 1338.5 723 1339.5 723.6L1358.8 743.5 1344.8 743.5 1336.2 734.6C1336.2 734.6 1336.2 734.6 1335.8 734.4 1335.1 734 1334.2 734 1333.5 734.4 1332.9 735.5 1332.6 736.7 1333.4 737.7L1339.3 743.5 1329.1 743.4C1327.8 743.2 1327.2 744.2 1327.1 745.1 1326.9 746.3 1327.7 747.3 1329.1 747.2L1339.2 747.6 1333.2 752.9C1332.6 753.9 1332.3 755.2 1333.3 755.8 1334.2 756.7 1335.1 756.8 1336 756L1344.9 747.3 1358.7 747.6 1338.6 767.3C1337.8 767.8 1337.9 769.2 1338.7 770.2 1339.4 770.6 1340.6 770.8 1341.6 770L1364.3 747.7 1375.7 748 1368 755.5C1367 756.3 1367.3 757.4 1368.1 758.4 1368.6 759.1 1370 759 1370.8 758.6L1381.3 748 1392.9 748 1387 758 1372.7 761.6C1371.6 761.9 1371 762.9 1371.3 764 1371.2 764.9 1372.6 765.7 1373.7 765.4L1384.1 762.8 1378.2 772.7 1347.1 780.3C1346 780.6 1345.4 781.6 1345.7 782.7 1346 783.8 1347 784.4 1348.1 784.1L1375.3 777.6 1368.3 789.2 1356.3 792.3C1355.2 792.6 1354.6 793.6 1354.8 794.7 1355.1 795.8 1356.1 796.4 1357.2 796.1L1365.3 794.4 1360.1 803C1359.5 804 1359.8 805.1 1360.8 805.7 1361.9 806.3 1363 806.1 1363.6 805L1368.7 796.4 1370.6 804.1C1370.9 805.2 1371.9 805.8 1373 805.5S1374.8 804.2 1374.5 803.1L1371.6 791.6 1378.7 779.6 1385.5 806.5C1385.8 807.6 1386.8 808.2 1387.9 807.9 1389 807.6 1389.7 806.6 1389.4 805.5L1381.6 774.8 1387.6 764.8 1390.2 775.3C1390.5 776.3 1391.5 777 1392.6 776.7 1393.7 776.4 1394.3 775.4 1394 774.3L1390.4 760 1396.2 750.4 1401.5 760.1 1397.6 774.5C1397.5 775.4 1398.2 776.7 1399 776.8 1400.3 777.1 1401 776.6 1401.6 775.6L1404.6 765.2 1409.9 774.9 1401.4 805.7C1401.1 806.9 1401.6 807.7 1402.6 808.3 1403.9 808.6 1404.8 807.7 1405.2 807L1413 780 1419.6 792.3 1416.4 803.9C1415.8 805 1416.6 805.9 1417.6 806.5 1418.5 806.6 1419.8 806 1420.1 804.7L1422.3 797.2 1427.4 805.8C1427.7 806.9 1428.9 807.2 1430.2 806.6 1430.9 806.1 1431.2 804.9 1430.7 804.1L1425.8 795.1 1433.7 797.5C1435 797.8 1435.9 797 1436 796.1 1436.6 795 1436.1 794.3 1435.4 793.9 1435.1 793.7 1435.1 793.7 1434.8 793.5L1423.2 790.3 1416.5 777.9 1443.2 785.5C1444.3 786.1 1445.2 785.3 1445.8 784.2 1445.9 783.3 1445.4 782.6 1444.7 782.2 1444.4 782 1444.4 782 1444.4 782L1413.5 772.9 1408.1 763.1 1418.5 766.1C1419.7 766.3 1420.5 765.8 1421.1 764.8 1421.2 763.9 1420.9 762.8 1420.2 762.4 1419.9 762.2 1419.9 762.2 1419.5 762L1405.1 758.1 1399.7 748.3 1410.8 748.4 1421.4 758.9C1422.2 759.9 1423.6 759.8 1424.4 759.3 1425 758.3 1425.3 757.1 1424.2 756.4L1416.7 748.7 1428.1 748.5 1450.5 771.7C1451 772.4 1452.5 772.4 1453.2 771.9 1453.8 770.8 1454.1 769.6 1453.3 768.6L1434 748.7 1447.7 749 1456.1 757.7C1456.9 758.7 1458.3 758.6 1459 757.6 1459.7 757.1 1460 755.9 1459.1 754.9L1453.3 749.1 1463.5 749.1C1464.4 749.2 1465.4 748.4 1465.6 747.1 1465.5 746.6 1465 745.8 1464.3 745.4 1464.3 745.4 1464 745.2 1463.7 745L1453.4 745 1459.2 739.1C1460 738.7 1459.9 737.2 1459.4 736.5 1459.1 736.3 1459.1 736.3 1459.1 736.3 1458.1 735.6 1457 735.9 1456.6 736.6L1447.9 744.9 1433.9 745 1454 725.3C1454.6 724.3 1454.7 723.4 1453.9 722.4 1453.9 722.4 1453.5 722.2 1453.5 722.2 1452.8 721.8 1451.9 721.7 1451 722.6L1428 744.7 1416.9 744.6 1424.6 737.1C1425.2 736.1 1425.5 734.8 1424.5 734.2 1424.7 733.9 1424.3 733.7 1424.3 733.7 1423.6 733.3 1422.5 733.5 1421.8 734L1411.3 744.5 1399.9 744.2 1405.6 734.6 1419.9 731C1420.9 730.7 1421.8 729.3 1421.5 728.3 1421 727.5 1420 726.9 1419.1 726.8L1408.5 729.8 1414.4 719.8 1445.1 712.1C1446.2 711.8 1446.8 710.8 1446.6 709.7 1446.3 708.6 1445.2 708 1444.1 708.2L1417.3 715 1424.4 703 1436 700.1C1437.1 699.8 1437.7 698.8 1437.4 697.7S1436.1 696 1435 696.3L1427.3 698.2 1432.4 689.6C1433.1 688.6 1432.8 687.5 1431.7 686.9 1430.7 686.2 1429.6 686.5 1429 687.6L1423.9 696.1 1421.6 688.3C1421.5 687.7 1421.3 687.2 1421 687 1420.6 686.8 1419.7 686.7 1419.2 686.8 1418.1 687.1 1417.5 688.1 1417.8 689.2L1421 701 1413.8 713 1406.7 685.9C1406.6 685.3 1406.4 684.8 1406.1 684.6 1405.7 684.4 1404.8 684.3 1404.3 684.5 1403.2 684.7 1402.6 685.8 1402.9 686.9L1411 717.8 1405 727.7 1402.6 717C1402.5 716.4 1401.8 716 1401.4 715.8 1401.1 715.6 1400.7 715.4 1400.2 715.5 1399.1 715.8 1398.3 717.2 1398.8 718L1402.2 732.6 1396.4 742.2 1390.7 732.2 1395 718C1395.1 717.1 1394.8 716 1394.1 715.6 1393.7 715.4 1393.7 715.4 1393.5 715.8 1392.5 715.2 1391.2 715.8 1390.9 717L1388 727.4 1382.3 717.4 1391.4 686.6C1391.5 685.7 1391 684.9 1390.3 684.5 1390 684.3 1390 684.3 1390 684.3 1388.7 684 1387.6 684.3 1387.4 685.5L1379.6 712.6 1373 700.2 1376.2 688.6C1376.5 687.4 1376 686.7 1375.3 686.2 1375.3 686.2 1374.9 686 1374.9 686 1373.7 685.8 1372.7 686.6 1372.3 687.3L1370.3 695.4 1365.4 686.4C1365.1 686.2 1364.7 686 1364.4 685.8 1364 685.6 1363.1 685.5 1362.6 685.7 1361.6 686.5 1361 687.5 1361.8 688.5L1366.7 697.5 1358.8 695.1C1357.6 694.8 1356.7 695.6 1356.2 696.3 1356 697.5 1356.8 698.5 1357.8 699.1L1369.4 702.3 1376.2 714.3 1349.5 706.8C1348.3 706.5 1347 707.1 1346.9 708 1346.7 709.2 1346.9 710.3 1348.2 710.6Z" fill="rgba(120, 75, 168, 1)"></path><path d="M577.8 305.1L567.2 285.4 580.7 285.2C582.2 285.4 583.7 284 584.1 282.1 583.7 280.3 582.4 278.8 580.6 279.2L563.7 278.8 554.8 263.8 590 264.7C591.8 264.3 593.3 262.9 593.4 261.5 593.3 259.2 592 257.7 590.2 258.1L551.3 257.2 538.4 233.8 568.8 237.8 550.9 213 577.5 213.2 596.8 247.1C596.5 247.7 597 248 597.6 248.3 598.7 249 600.1 249.1 601.3 248.3 602.5 247.6 602.9 245.6 602.5 243.8L585 213.2 602.5 214 610.8 228.7C611 229.6 611.6 229.9 612.1 230.2 612.7 230.5 614.1 230.6 615.3 229.9 616.5 229.1 617 227.1 616.2 225.9L609.9 214 632.3 213.9C634.3 214.4 635.3 212.7 635.7 210.7 635.8 209.3 634.5 207.8 632.2 207.9L610.1 207.4 617 195.8C618 194.2 617 192.1 615.9 191.5 614.3 190.5 612.5 190.9 611.5 192.6L602.7 207.4 585.2 206.6 603 177C603.9 175.3 603.5 173.6 601.9 172.6 600.8 171.9 598.5 172.1 597.5 173.7L577.8 206.7 551.1 206.4 569.3 182.2 539.2 185.1 553 162 591.4 162.6C593.7 162.5 594.7 160.9 594.8 159.4 594.9 158 593.6 156.5 591.6 156L556.6 156 565.5 141.2 582.7 141C584.7 141.5 586.2 140.1 586.1 137.8 586.2 136.4 584.9 134.9 582.6 135L569.4 134.6 580.9 115.3C581.9 113.7 581.5 111.9 579.8 110.9S576.4 110.4 575.4 112.1L563.9 131.3 557.3 119.9C556.3 117.8 554.4 117.4 553.2 118.1 551.1 119.1 550.6 121.1 551.9 122.6L560 137.9 551.1 152.7 534.5 121.9C533.2 120.3 531.2 119.9 530 120.7 527.9 121.7 527.5 123.6 528.8 125.2L547.5 158.7 533.7 181.8 522 153.9 509.3 181.4 496.5 158 516.2 125.1C517.2 123.4 516.2 121.4 515.1 120.7 513.4 119.7 511.7 120.2 510.7 121.8L492.6 152 484 136.4 492.9 121.6C493.9 120 493.4 118.2 491.8 117.2 490.7 116.6 488.4 116.7 487.4 118.3L480.5 129.9 469.6 110.7C468.6 108.6 466.6 108.1 465.1 109.5 463.9 110.2 462.9 111.9 464.2 113.4L474.8 133.2 461.3 133.3C459.9 133.2 458.3 134.5 458.2 135.9 458.1 137.4 458.9 138.6 459.4 138.9 460 139.2 460.5 139.5 461.4 139.3L478.3 139.7 487.2 154.8 452 153.8C450.2 154.3 448.7 155.6 448.6 157 448.5 158.4 449.3 159.7 450.4 160.3 450.9 160.6 450.9 160.6 451.8 160.4L490.8 161.3 503.6 184.7 473.2 180.7 491.2 205.6 464.5 205.3 445.2 171.4C444.5 170.2 442.8 169.2 440.7 170.2 439.5 171 439.1 172.9 439.5 174.7L457 205.3 439.6 204.6 431.2 189.9C430.8 188.1 428.8 187.7 426.7 188.7 425.5 189.4 425.1 191.4 425.5 193.2L432.1 204.6 409.7 204.6C407.7 204.2 406.8 205.8 406.3 207.8 406.5 208.7 407.3 209.9 407.9 210.2 408.4 210.5 409 210.9 409.8 210.6L431.9 211.2 425 222.7C424 224.3 425 226.4 426.1 227.1L426.1 227.1C427.7 228.1 429.5 227.6 430.5 226L439.4 211.1 456.8 211.9 439.1 241.5C438.1 243.2 438.5 245 440.2 245.9S443.6 246.5 444.6 244.8L464.3 211.9 490.9 212.2 472.8 236.3 502.8 233.4 489 256.5 450.6 255.9C448.3 256 447.3 257.7 447.2 259.1 447.1 260.5 448.4 262.1 450.4 262.5L485.1 263.1 476.6 277.4 459.3 277.5C457.3 277.1 455.8 278.4 455.9 280.7 455.8 282.1 457.1 283.7 459.1 284.1L472.6 284 461.1 303.2C460.1 304.8 460.6 306.6 462.2 307.6S465.6 308.1 466.6 306.5L478.1 287.3 484.7 298.7C484.9 299.5 485.5 299.9 486 300.2 487.1 300.9 488 300.6 488.9 300.4 491 299.4 491.4 297.4 490.1 295.9L482 280.7 490.9 265.8 507.5 296.7C508.1 297 508.6 297.3 509.2 297.6 510.3 298.3 511.2 298.1 512 297.9 514.1 296.9 514.6 294.9 513.2 293.4L494.5 259.8 508.3 236.7 520 264.6 532.7 237.1 545.6 260.5 525.9 293.4C524.9 295.1 525.9 297.2 527 297.8 528.6 298.8 530.4 298.4 531.4 296.7L549.1 267.1 558 282.1 549.1 296.9C548.1 298.6 548.6 300.3 550.2 301.3S553.6 301.9 554.6 300.2L561.5 288.7 572.4 307.9C572.6 308.7 573.2 309.1 573.7 309.4 574.3 309.7 575.7 309.8 576.9 309.1 578.1 308.3 579.1 306.6 577.8 305.1ZM520.3 249.1L510.8 226.3 486.2 228.7 501.3 208.6 487 188.9 511.4 191.6 521.7 169.4 531.2 192.2 555.8 189.8 541.1 209.3 555.1 229.6 530.9 226.4 520.3 249.1Z" fill="rgba(92, 157, 241, 1)"></path><path d="M774.1 319.9L795.5 368.3 790.6 382.1 758.3 387.2 748.7 375.8 754.5 323C754.4 322.4 754.4 322.4 754.3 321.8 754.1 320.5 753.3 319.3 751.3 319 749.4 319.3 748.2 320.1 747.9 322.1L743 368.3 728.5 350.5 730.4 330.1C730.4 330.1 730.3 329.5 730.3 329.5 730.1 328.2 729.3 327.1 727.3 326.7 725.9 326.3 724.2 327.9 723.9 329.9L722.1 343.1 711.6 329.9C710.7 328.7 708.7 328.4 706.9 329.3S705.5 332.8 706.5 334.6L716.9 347.2 703.8 346.1C701.8 345.7 700.1 347.3 699.8 349.3 700 350.6 700.9 352.4 702.9 352.7L723.3 354.6 737.9 373 691.7 368.1C689.7 367.7 688.1 369.3 687.6 370.7 687.9 372.6 688.9 374.4 690.9 374.7L743.5 379.9 753.2 391.9 741.8 421.6 726.6 424.1 683.5 393.4C682 392.3 680.1 392.6 679.1 394.1S678.3 397.4 679.8 398.5L717.8 425.5 694.4 429.2 678.3 417.5C676.8 416.5 674.9 416.8 673.2 418.4S672.5 421.7 673.9 422.8L685.5 430.6 668.5 433.4C666.6 433.7 665.6 435.8 665.9 437.7 666.2 439.6 667.7 440.6 669.6 440.3L686.7 437.6 678.7 448.6C677 450.2 677.3 452.1 679.4 453 680.9 454.1 682.8 453.8 683.8 452.3L695.5 436.2 718.9 432.4 691.2 469.9C690.1 471.4 690.5 473.9 692 475S695.4 475.7 696.4 474.3L727.7 431 742.9 428.6 763.2 453.9 757.6 467.7 709.2 489.1C707.4 490 707 492 707.3 493.9 708.3 495.7 710.3 496 712.2 495.7L754.5 476.6 746.2 498.1 727.5 506.2C725.7 507.2 725.3 509.2 725.6 511.1 726.5 512.2 728.6 513.2 730.4 512.3L742.5 507.1 736.6 522.9C736.2 524.3 737.1 526.1 738.6 527.2 740.6 527.5 742.4 526.5 742.8 525.2L748.7 509.3 754.6 522C755.4 523.2 757.5 524.1 758.7 523.3 760.6 523 761 521.6 760.7 519.7 760.7 519.7 760.6 519.1 760.6 519.1L752.4 500.3 760.7 478.9 779.8 521.2C780.7 523 782.2 524.1 784 523.1 785.8 522.2 786.2 520.8 786 519.6 785.9 518.9 785.9 518.9 785.9 518.9L763.8 470 769.3 456.1 801.6 451 810.6 462.5 805.5 515.8C805 517.2 806.6 518.9 808 519.3 810 519.6 811.7 518.1 812 516.1L816.9 469.9 831.4 487.7 829.5 508.1C829.2 510.1 830.1 511.9 832 511.6 834 511.9 835.7 510.3 836.1 509L837.2 495.2 847.7 508.4C849.2 509.5 851.2 509.8 853 508.9 853.5 508.1 853.9 506.8 853.7 505.5 853.6 504.9 853.6 504.9 852.9 504.3L842.4 491.1 856.1 492.1C858.1 492.5 859.2 491 859.6 489.6 859.5 489 859.5 489 859.4 488.4 859.2 487.1 858.4 486 857 485.5L836.6 483.6 822.1 465.8 868.3 470.8C870.2 470.5 872 469.5 871.6 467.6 872.2 466.9 872.2 466.9 872.1 466.3 871.9 465 870.4 463.9 869 463.5L815.7 458.4 806.8 446.9 818.1 416.6 832.6 414.2 875.9 445.6C877.4 446.6 879.9 446.2 881 444.7S881.6 440.8 880.1 439.7L842.1 412.7 864.9 409.1 881.6 420.7C883.1 421.7 885 421.4 886.1 419.9 887.1 418.5 886.8 416.6 885.4 415.5L874.4 407.6 891.4 404.8C892.7 404.6 894.4 403.1 894.1 401.2 893.8 399.3 891.6 397.7 890.3 397.9L873.2 400.6 881.2 389.6C881.7 388.9 882.3 388.1 882.2 387.5 882 386.3 881.2 385.7 880.5 385.2 879 384.1 877.1 384.4 876.1 385.9L863.8 402.1 841 405.8 868.7 368.3C869.2 367.5 869.1 366.9 868.9 365.7 868.8 365 868.7 364.4 868 363.9 866.5 362.8 864 363.2 863 364.7L831.5 407.3 817 409.6 796.9 385 801.7 370.6 850.7 349.1C851.9 348.3 853 346.8 852.8 345.6 852.7 344.9 852.7 344.9 852 345 851.7 343.1 849.6 342.2 847.8 343.1L805.5 362.2 813.7 340.1 832.4 332C833.6 331.1 834 329.8 833.8 328.5 833.8 328.5 833.7 327.9 833.7 327.9 833.4 326 831.3 325 829.5 325.9L816.9 331.9 822.8 316C823.3 315.3 823.2 314.6 823.1 314 822.9 312.7 822.1 311.6 821.4 311.7 819.3 310.7 817.5 311.7 816.5 313.1L810.6 329 805.4 316.8C804.5 315 802.4 314.1 800.6 315 799.4 315.9 798.4 317.9 799.3 319.1L807.5 337.9 799.2 359.3 780.1 317C779.2 315.2 777.2 314.9 775.3 315.2 774.2 316 773.2 318.1 774.1 319.9ZM763.2 393.6L787.9 389.6 791.7 389 794.1 391.9 809.4 410.8 811.9 414.3 810.5 417.8 801.9 440.6 800.5 444 796.7 444.6 772 448.6 768.2 449.2 765.8 446.3 750.5 427.4 748.1 424.5 749.4 420.4 758 397.7 759.4 394.2 763.2 393.6Z" fill="rgba(250, 112, 154, 1)"></path><path d="M760.1 140.6L765.4 132.1 768.8 138C769.1 138.6 770.1 139 771 138.7 771.7 138.1 772 137.1 771.7 136.5L767.5 128.7 772.5 120.8 781 136.7C781.6 137.7 782.6 138 783.2 137.4 784.2 137.1 784.6 136.2 783.9 135.2L774.5 117.7 778.8 110.4 798.3 110.9 802 117.4 790.7 135.4C790.6 135.7 790.6 136 790.6 136.3 790.6 136.6 790.9 137.3 791.2 137.6 792.2 138.3 793.1 138 793.5 137L803.8 120.7 808.1 128.8 803.1 137.3C802.8 137.3 802.8 137.6 802.8 137.9 802.7 138.6 803 139.2 803.7 139.5 804.3 139.9 805.3 139.6 805.9 139L809.9 132 815.4 142.1C815.8 142.7 816.7 143.1 817.7 142.8 818.3 142.2 818.7 141.2 818.4 140.6L813.2 131.1 819.9 131.3C820.8 131.3 821.5 130.4 821.5 129.8 821.6 128.8 820.9 127.8 820 127.8L811.3 127.6 807.1 119.5 825 119.9C825.9 119.9 826.6 119.3 826.6 118.4 826.7 117.4 826 116.8 825.1 116.7L805.2 116.2 801.3 109.4 811.6 92.7 819 92.9 828.7 110.7C829 111.7 830.3 112.1 831 111.4 831.9 111.1 832 110.2 831.7 109.2L822.8 93 832.1 93.2 836.4 101.3C836.7 102 837.9 102.3 838.6 102S839.6 100.5 839.3 99.5L835.9 93.3 847.1 93.6C848.1 93.6 848.7 92.7 848.8 91.7 848.8 91.1 848.2 90.1 847.2 90.1L836 89.8 839.7 83.5C840 82.9 840.1 81.9 839.1 81.2 838.5 80.9 837.2 81.2 836.9 81.8L832.2 89.7 822.9 89.5 832.6 73.7C832.9 72.8 833 71.8 832 71.1 831.4 70.8 830.1 71.1 829.8 71.7L819.1 89.4 811.7 89.2 802.2 72 806.6 65.3 826.4 65.9C827.4 65.9 828 65.3 828 64.3 828.1 63.3 827.4 62.4 826.5 62.3L808.6 61.9 813.3 54 821.9 54.2C822.9 54.2 823.5 53.6 823.5 52.7 823.6 51.7 822.9 51 822 51L815.3 50.8 820.9 41.7C821.3 41.1 821 39.8 820.4 39.5 819.4 39.1 818.4 39.1 818.1 40L812.1 49.5 808.4 42.7C807.8 42 806.9 41.7 806.2 42 805.6 42.3 805.2 42.9 805.2 43.5 805.2 43.5 805.2 43.9 805.5 44.2L810.1 53 805.4 60.8 795.9 43.9C795.6 43 794.7 42.6 793.7 43.2 793.4 43.6 793 43.9 793 44.5 793 44.8 793 45.1 793 45.5L803.4 64 799.4 70.3 779.9 69.8 775.9 62.3 786.3 45.3C786.9 44.3 786.6 43.4 785.7 43 785.1 42.4 784.1 42.7 783.4 43.6L774.1 59.1 769.5 50.9 774.2 43.4C774.5 42.7 774.2 41.8 773.6 41.1 772.6 40.8 771.7 40.8 771.3 41.7L767.7 47.4 762.8 38.6C762.5 37.6 761.5 37.6 760.5 37.9 760.2 38.2 759.9 38.8 759.9 39.5 759.9 39.5 759.8 39.8 759.8 40.1L765 49.5 757 49.3C756.4 49.3 755.4 49.9 755.4 50.9 755.4 51.9 756.3 52.5 757 52.5L766.9 52.8 771.5 60.9 752 60.4C751 60.4 750.3 61.3 750.3 62.3S750.9 63.9 751.9 63.9L773.3 64.5 777 71.3 766.6 88 758.3 87.8 748.5 69.6C747.9 68.9 746.9 68.6 746 68.9 745.6 69.2 745.3 69.8 745.3 70.5 745.3 70.8 745.3 71.1 745.6 71.4L754.4 87.7 745.2 87.4 740.6 79.3C740.3 78.7 739.3 78.3 738.4 78.6 737.7 79.2 737.4 80.2 737.7 80.8L741.3 87.3 731.1 87.1C730.5 87.1 729.5 88 729.4 88.6 729.4 89.6 730.4 90.6 731 90.6L741.2 90.9 737.2 96.8C737.2 97.2 737.2 97.5 737.2 97.8 737.2 98.4 737.5 99.1 737.8 99.4 738.8 99.8 739.7 99.5 740.4 98.8L745.1 91 754.4 91.2 744.7 107C744 107.9 744.3 108.9 744.9 109.2 745.9 109.9 746.8 109.6 747.5 108.9L758.2 91.3 766.5 91.5 776 108.7 772 115.3 750.5 114.8C749.6 114.8 748.9 115.4 748.9 116.3 748.9 117.3 749.5 118 750.5 118L770 118.5 765 126.4 755 126.1C754.4 126.1 753.4 127 753.4 128 753.4 128.9 754.3 129.6 755 129.6L762.9 129.8 757.3 139C757.3 139.3 757.3 139.3 757.3 139.6 757.2 140.2 757.5 140.9 757.9 141.2 758.8 141.6 759.8 141.3 760.1 140.6ZM770.3 91.6L769.4 89.7 770.4 88.1 778.8 74.5 779.8 73 781.7 73 797.4 73.4 799.3 73.5 800.2 75.1 807.9 89.1 808.8 90.7 807.8 92.6 799.4 105.8 798.4 107.7 796.5 107.7 780.8 107.3 778.9 107.2 778 105.3 770.3 91.6Z" fill="rgba(120, 75, 168, 1)"></path><path d="M404.3 445.5L417.1 461 403.9 463.7C402.4 463.8 401.2 465.4 401.1 467.4 401.9 469.1 403.5 470.3 404.9 470.2L422.4 467 434.2 481.4 398.6 487.6C396.4 488.2 395.1 489.8 395.9 491.4 395.8 493.4 397.4 494.7 399.7 494.1L438.9 487.2 449.9 500 436.7 536.8 422 539.6 395.1 506.8C394.5 506.6 393.9 506.3 393.3 506.1 392.7 505.9 391.3 506.1 390.5 506.5 388.6 507.8 388.5 509.9 390.1 511.1L414.7 541.1 396.6 544.1 383.6 529.2C383.8 528.6 383.2 528.3 382.6 528.1 381.4 527.7 380 527.9 379 528.8 377.9 529.8 377.9 531.9 378.7 533.5L389.3 545.5 366.7 549.6C365.3 549.8 364 551.4 364 553.4 364.8 555 366.3 556.3 367.8 556.1L388.9 552.2 384.4 564.8C383.7 566.6 385.1 568.5 386.3 568.9 388.1 569.6 390.3 569 391 567.2L396.8 551 414.9 548 402.8 581.7C402.1 583.5 402.9 585.1 404.7 585.8 406.5 586.4 408.1 585.6 408.8 583.8L422.3 546.5 437.7 543.3 462.9 573.4 457.9 587.3 417.8 594.6C415.8 594.5 414.3 596.7 415.1 598.4 415.1 600.4 416.9 601 418.9 601.1L455.3 594.5 449 612 430.9 615C429.5 615.1 428 617.3 428.2 618.7S430.5 621.6 432.6 621.7L446.4 619.2 438.8 640.3C438.1 642.1 439.5 643.9 441.3 644.6 442.5 645 444.7 644.5 445.4 642.6L453 621.6 462.6 632.5C463.6 633.6 465.4 634.2 467.3 632.9 468.3 631.9 468.6 629.2 467.6 628.2L455.6 614.4 461.9 596.9 485.7 625.2C487.3 626.5 489.1 627.1 491 625.8 492 624.8 492.3 622.1 491.3 621.1L464.5 589.7 469.5 575.8 508.2 568.7 518 581.1 504.5 618.4C503.8 620.2 504.6 621.8 506.4 622.5 508.2 623.1 510.5 622.6 511.1 620.8L523.3 587.1 535.3 600.9 529.4 617.2C528.8 619 529.5 620.6 531.4 621.3 533.2 621.9 534.8 621.2 535.5 619.4L540 606.7 553.8 623.3C554.8 624.3 557.4 624.6 558.4 623.6 559.7 622 560.3 620.2 558.7 618.9L544.6 601.6 559.8 598.9C561.5 598.1 562.7 596.6 562.6 595.1 562.4 593.7 561.4 592.7 560.2 592.2 560.2 592.2 559.6 592 558.8 592.4L539.3 595.6 527.3 581.7 565.3 574.3C567.3 574.4 568.6 572.8 568 570.6 567.7 569.7 567.3 568.9 566.1 568.5 565.5 568.3 564.9 568.1 564.3 567.8L522.6 575.9 513.1 564.4 526.4 527.6 543.1 524.8 568.8 555.2C570.2 557.1 572.2 557.1 573.5 555.5 575.1 554.7 575.2 552.7 573.8 550.9L550.4 523.4 568.7 519.8 580.1 533.4C581.1 534.4 583.1 534.5 584.7 533.7 586 532.1 586.6 530.3 585.1 529.1L576.6 518.5 596.3 514.8C598.4 514.8 599 513 599.1 511 598.7 510.2 597.7 509.1 596.5 508.7 596.5 508.7 595.9 508.5 595.3 508.3L574.1 512.2 579.6 497.2C580 496 579.4 493.7 577.6 493.1 575.8 492.4 574 493.8 573.5 495L566.8 513.6 548.5 517.2 561.8 480.5C562.4 478.7 561 476.9 559.2 476.2S555.8 476.3 555.1 478.1L540.6 518.5 525.3 521.1 500.2 490.9 505.8 475.3 546.5 468.2C548.1 467.4 549.4 465.8 549.4 463.8 549 463 548 462 546.8 461.5 546.2 461.3 545.6 461.1 544.8 461.5L508.4 468.1 514.7 450.6 533 447C534.4 446.9 535.7 445.3 535.8 443.2 535 441.6 533.4 440.3 532 440.5L517.3 443.4 524.3 424.1C524.7 422.9 523.6 420.5 522.4 420 520.6 419.4 518.1 420.5 517.7 421.7L510.7 441 501.9 429.6C501.3 429.4 500.7 429.2 500.1 429 498.9 428.6 497.4 428.7 496.6 429.1 495.4 430.7 495.3 432.7 496.1 434.4L508.1 448.2 501.8 465.7 478 437.4C476.6 435.5 474.6 435.5 473.6 436.4 471.7 437.8 471.7 439.8 472.4 441.5L499.2 472.9 493.5 488.6 454.9 495.7 444.9 483.9 459.4 443.6C460.1 441.8 459.3 440.1 457.5 439.5 455.7 438.8 454.1 439.6 453.4 441.4L440.1 478.1 428.4 463.7 435.1 445C435.5 443.8 434.4 441.3 432.6 440.7 430.8 440 428.9 441.4 428.5 442.6L423 457.7 409.3 441.1C408.7 440.9 408.7 440.9 408.1 440.7 406.9 440.3 405.4 440.4 404.6 440.8 403.4 442.4 403.3 444.4 404.3 445.5ZM490.9 495.8L495.2 495.3 497.6 498.2 518 522.6 520.4 525.5 519.1 529.1 508.4 558.6 507.1 562.2 503.4 562.9 472.1 568.6 468.5 569.3 465.5 566.2 445.7 542 442.7 538.9 444 535.3 454.6 505.8 455.9 502.2 460.2 501.7 490.9 495.8Z" fill="rgba(250, 112, 154, 1)"></path><path d="M830.7 759.2L829.9 771.7 822.7 767.3C822 766.8 820.8 766.9 819.9 767.8 819.5 768.9 819.7 770.2 820.4 770.7L829.8 776.7 829 788.3 810.1 776C808.9 775.3 807.6 775.5 807.3 776.5 806.4 777.4 806.6 778.7 807.8 779.4L828.7 793 828.2 803.6 806.5 814.6 798.6 809.7 800.3 783.2C800.2 782.9 800 782.5 799.8 782.1 799.6 781.8 798.9 781.3 798.3 781.1 796.9 780.9 796 781.8 796.2 783.1L794.6 807.2 785.1 800.9 785.5 788.5C785.9 788.3 785.7 788 785.5 787.6 785.2 786.9 784.4 786.4 783.5 786.4 782.6 786.4 781.8 787.3 781.4 788.4L781.1 798.4 769.1 790.6C768.4 790.1 767.1 790.3 766.2 791.2 765.9 792.2 766.1 793.5 766.8 794L778.1 801.3 770.6 805.1C769.6 805.6 769.4 807.1 769.8 807.8 770.3 808.9 771.6 809.6 772.6 809L782.3 804.1 791.8 810.5 771.8 820.6C770.8 821.2 770.4 822.3 771 823.3 771.5 824.4 772.6 824.8 773.6 824.2L795.7 812.9 804.2 818.1 802.8 842.6 794.6 846.8 773.2 833C772.3 832.1 770.7 832.5 770.3 833.5 769.4 834.4 770 835.5 770.9 836.4L790.3 848.9 780 854.2 770.4 847.8C769.7 847.3 768.1 847.7 767.6 848.4S767.4 850.7 768.3 851.6L775.7 856.4 763.2 862.8C762.1 863.3 762 864.7 762.5 865.8 762.9 866.5 764.1 867.2 765.2 866.7L777.7 860.3 777.4 869.4C777.4 870.3 778 871.4 779.4 871.6 780.3 871.6 781.5 870.5 781.5 869.6L782 858.1 792.3 852.9 791.1 875.9C791.2 877.2 791.8 878.3 793.2 878.4 794.1 878.4 795.4 877.3 795.3 876.5L796.6 850.7 804.8 846.5 825.4 859.8 824.6 869.6 802.5 880.9C801.5 881.4 801.1 882.5 801.7 883.6 802.2 884.6 803.5 885.3 804.5 884.8L824.5 874.6 824 886.1 814.4 891C813.4 891.5 813 892.6 813.6 893.7 814.1 894.7 815.2 895.1 816.2 894.5L823.7 890.7 822.9 904.1C822.9 905 824 906.3 824.9 906.3 826.2 906.1 827.2 905.5 827.1 904.3L828 890.3 836.1 895.6C837.2 896 838.4 895.8 839 895.1 839.5 894.3 839.5 893.5 839.1 892.7 839.1 892.7 838.9 892.4 838.4 892.2L828.2 885.3 828.6 873.9 849.1 886.8C850 887.6 851.2 887.5 852 886.2 852.1 885.7 852.3 885.1 851.9 884.4 851.8 884.1 851.6 883.7 851.4 883.3L828.9 869.2 829.6 859.9 851.3 848.8 860.1 854.6 858.9 879.5C858.7 881 859.6 881.8 860.9 881.7 861.9 882 862.8 881.1 863 879.7L864.1 857.1 874 863.3 873.3 874.4C873.3 875.3 874.2 876.2 875.3 876.5 876.6 876.3 877.6 875.8 877.4 874.5L878.1 866.1 888.7 872.8C889.6 873.7 890.7 873.2 891.6 872.3 891.7 871.8 891.7 870.9 891.4 870.1 891.4 870.1 891.2 869.8 891 869.4L879.7 862.2 888.6 857.6C889.3 857.3 890 856 889.5 855 888.9 853.9 887.5 853.7 886.8 854.1L875.7 859.7 865.8 853.5 887.6 842.4C888.6 841.9 888.8 840.5 888.3 839.4S886.6 838 885.6 838.5L861.7 850.7 853.6 845.4 855 820.9 864.3 816.2 885.9 830.3C886.9 830.6 888.2 830.5 889.1 829.6 889.2 829 889.2 828.1 888.9 827.4 888.7 827.1 888.5 826.7 888 826.5L868.6 814 878.9 808.7 888.8 814.9C889.5 815.4 890.7 815.2 891.6 814.3 892 813.3 891.8 812 891.1 811.5L883.2 806.5 894.6 800.7C895.3 800.3 895.8 798.7 895.4 798 894.9 796.9 893.3 796.4 892.6 796.8L881.2 802.6 882 793.7C881.8 793.3 881.6 792.9 881.4 792.6 881.1 791.9 880.4 791.3 879.8 791.2 878.6 791.4 877.7 792.3 877.3 793.3L876.9 804.8 866.6 810.1 867.8 787C868 785.5 867.1 784.6 866.2 784.7 864.7 784.5 863.9 785.4 863.5 786.5L862.3 812.2 853 817 832.3 803.7 832.8 794 856.7 781.9C857.7 781.3 858.1 780.2 857.5 779.2 857 778.1 855.9 777.8 854.9 778.3L833.1 789.4 833.9 777.8 845 772.1C845.7 771.8 846.2 770.1 845.7 769.1 845.1 768 843.7 767.8 843 768.2L834.1 772.7 834.8 759.3C834.7 759 834.7 759 834.5 758.6 834.1 757.9 833.4 757.4 832.9 757.2 831.6 757.4 830.7 758.3 830.7 759.2ZM848.7 819.1L850.9 820.7 850.7 823.1 849.6 842.9 849.5 845.3 847.3 846.3 829.9 855.2 827.7 856.3 825.8 855.1 809 844.3 807.1 843.1 807 840.4 808.3 820.9 808.3 818.2 810.4 817.1 827.9 808.2 830 807.1 832.2 808.7 848.7 819.1Z" fill="rgba(250, 112, 154, 1)"></path><path d="M1238.2 627.2L1251.1 608.9 1257.3 620.9C1257.8 622.3 1259.7 623.1 1261.7 622.6 1263 621.4 1263.8 619.5 1262.6 618.1L1255.4 602.8 1264.9 588.1 1279.8 620.1C1281 621.4 1282.9 622.2 1284.2 621.7 1286.2 620.6 1287 618.7 1285.8 617.3L1269.2 582 1284.3 560.1 1294.3 589.1 1308.6 561.9 1320.3 585.9 1298.6 618.3C1297.9 618.2 1297.9 618.9 1297.8 619.5 1297.7 620.8 1298.3 622.1 1299.5 622.8 1300.7 623.6 1302.7 623.1 1304.1 621.9L1323.6 592.6 1330.7 608.5 1321.3 622.6C1320.7 623.2 1320.6 623.8 1320.6 624.4 1320.5 625.1 1321 626.4 1322.3 627.1 1323.5 627.9 1325.5 627.4 1326.2 626.1L1334.1 615.2 1344.1 635.2C1344.6 637.2 1346.5 637.3 1348.5 636.8 1349.8 636.3 1350.6 634.4 1349.5 632.4L1340.1 612.4 1353.5 613.4C1355.4 613.6 1356.8 611.8 1356.9 610.5 1357.1 608.6 1355.9 607.2 1354 607.1L1336.7 605.8 1329.6 589.8 1364 592.4C1366 592.6 1367.3 591.4 1367.5 589.5 1367.6 588.2 1366.4 586.2 1364.5 586L1326.2 583.1 1314.6 559.2 1344.3 564.6 1328.3 539 1355.1 541 1371.7 575.7C1372.9 577.7 1374.8 577.8 1376.1 577.3 1377.4 576.7 1378.2 574.9 1377.7 572.9L1362.1 541.6 1379.3 542.9 1387.2 558.2C1387.7 560.2 1389.5 561 1391.5 559.8 1392.9 559.3 1393.6 557.4 1392.5 555.4L1387 543.4 1409.3 545.1C1411.2 545.3 1412.6 544.1 1412.8 542.2S1411.7 538.9 1409.8 538.7L1387.5 537.1 1394.7 526C1396.1 524.2 1395.6 522.3 1394.4 521.5 1392.6 520.1 1390.6 520.6 1389.9 522.5L1379.8 536.5 1362.6 535.2 1382.7 506.5C1383.5 504.7 1383 502.7 1381.8 502 1380 500.5 1378 501 1377.2 502.9L1355.6 534.6 1328.8 532.6 1348.5 509.7 1318.2 510.7 1333.4 488.7 1371.6 491.6C1373.6 491.7 1375 489.9 1375.1 488.6 1375.2 486.7 1374 485.3 1372.1 485.2L1337 482.5 1347.1 467.9 1364.3 469.2C1366.3 469.3 1367.6 468.2 1367.8 466.3 1367.9 465 1366.7 463 1364.8 462.8L1351.4 461.8 1363.7 443.5C1365.1 441.7 1364.6 439.7 1362.8 438.9 1361.5 438.2 1359.6 438 1358.9 439.9L1345.9 458.2 1339.8 446.2C1339.2 444.8 1337.4 444.1 1336 444.6 1334.7 445.1 1334 446.4 1333.9 447 1333.9 447.7 1333.8 448.3 1334.4 449L1341.6 464.3 1332.2 479 1317.2 447C1316.1 445.7 1314.2 444.9 1312.9 445.4 1311.5 446 1310.8 447.2 1310.7 448.5 1310.7 449.1 1310.7 449.1 1311.3 449.8L1327.9 485.1 1312.7 507 1302.7 478 1288.5 505.2 1276.8 481.2 1298.5 448.8C1299.2 447.6 1299.4 445.7 1297.6 444.3 1296.3 443.5 1294.4 444 1293 445.2L1273.4 474.5 1266.3 458.6 1275.7 444.5C1277.1 443.4 1276.6 441.4 1274.8 440 1273.5 439.3 1271.6 439.7 1270.2 440.9L1263 451.9 1252.9 431.9C1252.4 430 1250.5 429.8 1248.5 430.3 1247.9 430.9 1247.1 432.1 1247.1 432.8 1247 433.4 1247 434 1247.6 434.7L1257 454.7 1243.6 453.7C1241.7 453.5 1240.2 455.4 1240.1 456.6L1240.1 456.6C1240 458.5 1241.2 459.9 1243.1 460.1L1260.3 461.4 1267.5 477.3 1233 474.7C1231.1 474.6 1229.7 475.7 1229.6 477.7S1230.6 480.9 1232.5 481.1L1270.8 484 1282.5 508 1252.7 502.5 1268.8 528.1 1242 526.1 1225.3 491.5C1224.2 489.4 1222.3 489.3 1220.9 489.8 1219.6 490.4 1218.8 492.3 1219.3 494.2L1234.3 525.5 1217.7 524.3 1209.9 508.9C1209.4 506.9 1207.5 506.2 1205.5 507.3 1204.2 507.8 1203.4 509.7 1203.9 511.7L1210.1 523.7 1187.7 522C1185.8 521.9 1184.4 523 1184.3 524.9S1185.3 528.2 1187.2 528.4L1209.6 530.1 1202.3 541.1C1201.6 541.7 1201.6 542.3 1201.5 542.9 1201.4 544.2 1202 544.9 1202.6 545.6 1204.4 547 1206.4 546.5 1207.2 544.6L1217.2 530.6 1234.5 531.9 1214.3 560.6C1214.3 561.2 1214.2 561.9 1214.2 562.5 1214.1 563.8 1214.7 564.5 1215.3 565.1 1217.1 566.6 1219.1 566.1 1219.8 564.2L1241.5 532.5 1268.3 534.5 1248.6 557.4 1278.8 556.5 1263.7 578.4 1225.4 575.5C1223.5 575.4 1222.1 577.2 1222 578.5 1221.8 580.4 1223 581.8 1224.9 581.9L1259.4 584.5 1249.9 599.2 1232.7 597.9C1230.8 597.8 1229.4 598.9 1229.3 600.9S1230.3 604.1 1232.2 604.3L1245.6 605.3 1233.3 623.6C1232.6 624.2 1232.6 624.9 1232.5 625.5 1232.5 626.1 1233 627.5 1234.3 628.2 1235.5 628.9 1237.4 629.1 1238.2 627.2ZM1262.6 550.7L1278.7 532.1 1265.6 511.2 1290.2 515.6 1301.5 494 1310 517.1 1334.5 516.4 1318.3 535 1331.5 555.9 1307.4 551.6 1295.5 573.1 1287.7 550.1 1262.6 550.7Z" fill="rgba(250, 112, 154, 1)"></path><path d="M1000.3 702.4L998.1 664.1 1007.7 653.9 1008.4 666.8C1008.1 668.2 1009.4 669 1010.8 669.3 1011.8 669 1013 667.8 1012.8 666.7L1012.1 648.9 1021.2 638.6 1025.3 651.7 1017 667.6C1017 667.6 1016.9 668.1 1016.9 668.1 1016.7 669 1017.4 670.2 1018.3 670.9 1019.7 671.2 1020.7 670.9 1021.5 669.6L1027.4 658.1 1031.5 671.2 1014.4 705.4C1014.4 705.4 1013.8 705.7 1013.8 705.7 1013.6 706.7 1014.4 707.8 1015.2 708.5 1016.5 709.2 1018.1 708.6 1018.4 707.2L1033.5 677.5 1039 693.4 1032.3 706.7C1032.3 706.7 1032.3 706.7 1032.2 707.2 1032 708.1 1032.2 709.2 1033.1 709.8 1034.5 710.1 1036 710 1036.7 708.6L1041.1 699.8 1045 711.4C1045.2 712.9 1046.6 713.2 1047.6 712.9 1049.1 712.7 1049.9 711.4 1049.3 709.8L1045.8 698.3 1054.1 703C1055.5 703.3 1057.1 703.1 1057.4 701.7 1058.1 700.4 1057.9 699.4 1056.5 698.6L1043.3 691.9 1038.3 676.1 1068.4 691.3C1069.2 692 1070.8 691.4 1071.6 690 1071.8 689.1 1071.6 687.6 1070.3 686.8L1036.2 669.8 1032.1 656.6 1043.6 662.5C1044.9 663.3 1046.1 662.5 1046.8 661.2 1047.5 660.4 1046.9 658.8 1046 658.1L1030 650.3 1025.5 637.1 1039.1 639.9 1048.7 654.7C1049.4 655.9 1050.8 656.2 1052 655.4 1053 655.2 1053.4 653.3 1052.7 652.2L1045.7 641.3 1059.3 644.2 1079.9 676.6C1080.6 677.7 1082 678 1083.2 677.3 1084.3 676.5 1084.6 675.1 1083.9 674L1065.8 645.6 1081.8 649 1089.9 661.6C1090.7 662.7 1092.1 663 1093.2 662.3 1094.4 661.5 1094.7 660.1 1093.9 659L1088.8 650.5 1100.6 653C1102 653.3 1103.1 652.6 1103.4 651.2 1103.7 649.8 1103 648.6 1101.6 648.3L1089.8 645.8 1097.8 640.7C1099 639.9 1099.3 638.5 1098.5 637.4S1096.4 635.9 1095.2 636.7L1083.3 644.4 1066.8 640.9 1094.7 622.8C1095.9 622.1 1096.2 620.7 1095.4 619.5 1094.7 618.4 1093.3 618.1 1092.2 618.8L1060.3 639.5 1046.7 636.6 1057.5 629.6C1058.6 628.9 1058.9 627.5 1058.2 626.3 1057.4 625.2 1056 624.9 1054.9 625.6L1040.1 635.3 1026.9 632.5 1035.9 622.6 1053.8 621.5C1054.8 621.2 1056.1 620 1055.8 619 1055.6 617.5 1054.8 616.8 1053.4 616.5L1040.5 617.2 1049.5 607.3 1087.7 605.1C1089.2 605 1089.9 604.1 1090.2 602.7 1090 601.2 1088.7 600.4 1087.8 600.2L1054 601.9 1065.5 589.6 1079.9 588.8C1081.3 589.1 1082.1 587.7 1082.4 586.3 1082.1 585.3 1080.9 584.1 1079.4 584.2L1070 584.7 1077.8 575.5C1078.9 574.8 1078.8 573.3 1077.6 572.1 1076.7 571.4 1075.2 571.6 1074.5 572.4L1066.2 581.4 1065.9 571.5C1065.7 570 1064.4 569.3 1063.4 569.5 1062 569.2 1061.3 570.1 1061.1 571 1061 571.5 1061 571.5 1060.9 572L1061.8 586.4 1050.3 598.7 1048.5 565.4C1048.8 564 1047.5 563.2 1046.1 562.9 1045.1 563.2 1044.4 564 1044.2 565 1044.1 565.4 1044.1 565.4 1044.1 565.4L1045.7 604.1 1036.8 613.9 1036.1 601C1035.9 599.5 1035.1 598.9 1033.6 598.6 1032.6 598.8 1031.5 599.6 1031.3 600.5 1031.2 601 1031.2 601 1031.1 601.4L1032.2 619.3 1023.2 629.2 1019 616.5 1026.8 600.5C1027.6 599.2 1027 597.6 1026.1 597 1024.7 596.7 1023.2 596.8 1022.9 598.2L1017 609.7 1012.4 597 1030 562.5C1030.7 561.6 1030.1 560 1029.2 559.3 1027.8 559 1026.3 559.2 1025.5 560.5L1010.4 590.2 1005.4 574.4 1012.1 561.6C1012.8 560.3 1012.2 558.7 1010.8 558.4 1009.9 557.7 1008.4 557.9 1007.7 559.2L1003.3 568.1 999.4 556.4C999.1 555.4 997.8 554.6 996.3 554.8 995.8 555.2 995.1 556 994.9 556.9 994.9 556.9 994.8 557.4 994.7 557.9L998.6 569.5 989.7 565.2C988.9 564.5 987.3 565.1 986.6 566 986.5 566.4 986.5 566.4 986.5 566.4 986.2 567.9 986.9 569 987.9 569.2L1000.7 575.8 1006.1 591.7 976 576.5C974.6 576.2 973.6 576.5 972.8 577.8 972.8 577.8 972.7 578.2 972.7 578.2 972.5 579.2 972.8 580.2 974.1 581L1008.1 598.5 1012.3 611.2 1000.8 605.3C999.4 605 997.9 605.2 997.6 606.6 997.1 606.5 997 607 997 607 996.8 607.9 997.6 609 998.4 609.7L1014.4 617.5 1018.5 630.7 1005.3 627.9 995.7 613.1C995 611.9 993.1 611.5 992 612.3 991.3 613.1 991 614.5 991.3 615.6L998.8 626.5 985.1 623.6 964.4 591.7C963.7 590.6 962.3 590.3 961.2 591 960 591.7 959.7 593.1 960.5 594.3L978.6 622.2 962.1 618.7 954.4 606.7C953.6 605.6 952.2 605.3 951.1 606S949.7 608.2 950.4 609.3L955.6 617.3 943.8 614.8C942.4 614.5 941.3 615.2 941 616.6 940.7 618 941.4 619.2 942.8 619.5L954.6 622 946.5 627.6C945.9 628 945.4 628.4 945.3 628.8 945.2 629.3 945.4 630.3 945.8 630.9 946.5 632.1 947.9 632.4 949.1 631.6L961.1 623.4 977.6 626.9 949.6 645.5C949 645.8 948.4 646.2 948.3 646.7 948.2 647.1 948.5 648.2 948.9 648.7 949.6 649.9 951 650.2 952.2 649.4L984.1 628.3 997.8 631.2 986.5 638.1C985.9 638.5 985.7 639.4 985.6 639.9 985.5 640.3 985.4 640.8 985.8 641.4 986.5 642.5 988.4 642.9 989.1 642.1L1004.3 632.6 1017.5 635.4 1008.4 645.7 990.6 646.3C989.6 646.6 988.4 647.3 988.2 648.3 988.1 648.7 988.1 648.7 988.6 648.8 988.3 650.3 989.5 651.5 991 651.3L1003.9 650.6 994.9 661 956.2 662.6C955.2 662.8 954.5 663.7 954.3 664.6 954.2 665.1 954.2 665.1 954.2 665.1 954.4 666.6 955.1 667.7 956.7 667.6L990.4 665.9 978.9 678.2 964.5 679.1C963 679.2 962.3 680.1 962.1 681 962.1 681 962 681.5 962 681.5 962.2 683 963.5 683.8 964.5 684L974.5 683.1 966.2 692.2C966.1 692.6 966 693.1 965.9 693.6 965.8 694 966 695.1 966.4 695.7 967.7 696.4 969.1 696.7 969.9 695.4L978.2 686.4 978.5 696.3C978.7 697.8 980 698.5 980.9 698.7 982.5 698.6 983.2 697.3 983.5 695.9L982.7 681.4 993.6 669.1 995.4 702.3C995.6 703.8 996.8 705.1 997.8 704.8 999.3 704.6 1000.5 703.9 1000.3 702.4Z" fill="rgba(250, 112, 154, 1)"></path><path d="M422.1 776.6L419.8 787.6 414.6 783.3C414.1 782.8 413 782.8 412.2 783.4 411.8 784.2 411.9 785.3 412.7 785.6L419 791.3 417.6 799.9 404.4 788.2C403.6 787.8 402.6 787.8 402.1 788.3 401.4 789.2 401.4 790.2 402.2 790.6L416.8 803.5 414.2 816.6 403.9 805.3 402.7 820.6 392.6 811.9 396.1 792.7C396.4 792.6 396.3 792.3 396.2 792 396 791.4 395.5 790.9 394.8 790.8 394.1 790.7 393.3 791.3 392.9 792.1L389.7 809.5 383.3 803.5 384.8 795.2C385 794.8 384.9 794.5 384.8 794.2 384.7 793.9 384.2 793.4 383.5 793.3 382.8 793.2 382 793.8 381.9 794.6L380.4 801.1 371.9 793.9C371.3 793.1 370.3 793.5 369.5 794.1 369 794.6 369.1 795.6 370 796.3L378.2 803.6 371.9 805.8C371 806.1 370.7 807.2 370.9 807.8 371.2 808.7 372 809.1 372.9 808.8L381.1 806 387.5 811.9 371.2 817.5C370.3 817.8 369.9 818.7 370.2 819.6 370.4 820.2 371.3 820.9 372.2 820.6L390.4 814.3 400.5 823 385.7 826.4 398.2 835 385.5 839.3 371 826.7C370.1 826 369.2 826.4 368.7 826.9 368.2 827.4 368.2 828.4 368.8 829.2L382.1 840.5 374 843.3 367.3 837.8C366.7 837 365.7 837 365 837.9 364.5 838.4 364.5 839.5 365.4 840.2L370.3 844.6 359.8 848.2C358.8 848.5 358.4 849.3 358.8 850.2S359.9 851.5 360.8 851.2L371.4 847.6 370.2 854.1C369.9 855.2 370.6 856 371.3 856.1 372.4 856.4 373.2 855.8 373.2 854.8L375 846.3 383.2 843.5 379.6 860.7C379.6 861.7 380.2 862.5 380.9 862.6 382.1 862.9 382.9 862.2 382.9 861.2L386.5 842.4 399.2 838 394.7 852.4 408.4 846 405.8 859.1 387.7 865.3C386.7 865.6 386.5 866.8 386.7 867.4 387 868.3 387.8 868.7 388.7 868.4L405.3 862.6 403.6 871.4 395.4 874.2C394.5 874.5 394.1 875.3 394.4 876.2 394.6 876.8 395.6 877.5 396.5 877.2L402.8 875 400.8 885.8C400.5 887 401.1 887.8 402.1 887.8 402.9 887.9 403.8 887.5 403.7 886.5L406.1 875.6 411.3 879.9C411.8 880.4 412.8 880.4 413.3 879.9 413.8 879.3 413.9 878.6 413.8 878.3 413.7 878 413.6 877.7 413.2 877.5L406.8 871.9 408.3 863.3 421.4 875C422.3 875.4 423.3 875.4 423.8 874.9 424.3 874.4 424.4 873.7 424.2 873.1 424.1 872.8 424.1 872.8 423.6 872.6L409 859.7 411.7 846.6 422 857.9 423.2 842.6 433.3 851.3 429.7 870.5C429.6 871.2 429.9 872.1 431 872.4 431.7 872.5 432.5 871.9 432.9 871.1L436.1 853.7 442.5 859.6 441 867.9C440.6 868.8 441.2 869.6 442.3 869.9 443.1 869.9 443.9 869.3 444.3 868.5L445.4 862 454 869.2C454.6 870 455.5 869.7 456.3 869.1 456.5 868.7 456.6 868 456.5 867.7 456.4 867.4 456.3 867.1 455.9 866.9L447.6 859.6 454 857.4C454.9 857.1 455.2 856 455 855.4L455 855.4C454.6 854.5 453.8 854.1 452.9 854.4L444.7 857.2 438.3 851.3 454.7 845.6C455.6 845.3 456 844.5 455.6 843.6S454.5 842.3 453.6 842.6L435.5 848.9 425.4 840.2 440.1 836.8 427.7 828.2 440.4 823.8 454.9 836.4C455.8 837.1 456.7 836.8 457.2 836.3 457.7 835.8 457.7 834.8 457.1 834L444 822.6 451.9 819.9 458.5 825.4C459.1 826.2 460.1 826.2 460.8 825.2 461.3 824.7 461.3 823.7 460.7 822.9L455.5 818.6 466.1 815C467 814.7 467.4 813.8 467.1 812.9S466 811.6 465 811.9L454.5 815.6 455.6 809.1C455.8 808.7 455.7 808.4 455.6 808.1 455.4 807.5 455 807.3 454.6 807.1 453.5 806.8 452.7 807.4 452.7 808.4L450.8 816.8 442.7 819.7 446.2 802.5C446.1 802.2 446 801.9 445.9 801.6 445.7 801 445.3 800.8 444.9 800.6 443.8 800.3 443 800.9 443 801.9L439.3 820.8 426.6 825.2 431.1 810.8 417.4 817.2 420 804.1 438.2 797.8C439.1 797.5 439.4 796.4 439.2 795.8 438.9 794.9 438.1 794.5 437.1 794.8L420.8 800.4 422.2 791.8 430.4 789C431.3 788.7 431.7 787.9 431.4 787S430.3 785.7 429.4 786L423 788.2 425 777.3C425.2 776.9 425.1 776.6 425 776.3 424.9 776 424.4 775.5 423.7 775.4 423 775.3 422.1 775.6 422.1 776.6ZM426 816.6L422.3 828.4 432.5 835.3 420.3 838.2 419.4 850.3 410.9 841.4 399.8 846.6 403.5 834.8 393.4 827.8 405.3 825.1 406.5 812.8 414.6 821.9 426 816.6Z" fill="rgba(43, 134, 197, 1)"></path><path d="M1027 95.3L1017.7 99.1 1018.4 92.4C1018.5 91.7 1018 90.8 1017 90.5 1016.1 90.6 1015.3 91.2 1015.2 91.9L1014 100.7 1005.4 104.1 1007.8 86.2C1007.9 85.1 1007.3 84.2 1006.4 84.4 1005.4 84 1004.6 84.6 1004.5 85.7L1001.9 105.5 994.1 108.8 978.6 96.9 979.5 89.5 999.2 81.7C999.4 81.4 999.6 81.2 999.8 80.9 1000 80.6 1000.1 79.9 1000 79.5 999.7 78.4 998.7 78.1 997.9 78.6L979.9 85.8 981.2 76.7 990.3 72.8C990.5 73 990.7 72.7 990.9 72.5 991.3 72 991.4 71.3 991.1 70.6 990.8 70 989.8 69.7 989 69.8L981.6 73 983.1 61.7C983.2 60.9 982.7 60.1 981.7 59.8 980.8 59.9 980 60.5 979.8 61.2L978.5 71.8 973.2 67.8C972.4 67.2 971.3 67.5 970.9 68.1 970.3 68.8 970.3 70 971 70.5L977.9 75.8 976.6 84.9 962.3 74C961.6 73.4 960.7 73.5 960.1 74.3 959.5 75 959.6 75.9 960.4 76.5L976.1 88.6 975.4 96.5 957.2 103.9 951.3 99.4 953.9 79.2C954.2 78.2 953.4 77.2 952.5 77.3 951.6 77 951 77.8 950.6 78.7L948.3 97.1 940.9 91.4 942.2 82.3C942.4 81.6 941.5 80.6 940.8 80.5S939.1 81.2 938.8 82.1L937.9 89.1 929 82.3C928.2 81.7 927.1 82.1 926.5 82.8 926.1 83.3 926.1 84.5 926.8 85.1L935.7 91.9 929 94.8C928.4 95.1 927.8 95.9 928.2 97 928.5 97.6 929.7 98.2 930.3 97.8L938.8 94.2 946.1 99.9 929 106.9C928.2 107.5 927.6 108.2 928 109.3 928.3 110 929.5 110.5 930.2 110.2L949.2 102.2 955 106.7 952.6 126.2 945.2 129 929.4 116.9C928.7 116.3 927.8 116.4 927.2 117.2 926.6 118 926.5 119.1 927.3 119.7L941.5 130.6 933.1 134.2 926.2 129C925.5 128.4 924.6 128.5 924 129.3 923.4 130 923.5 130.9 924.3 131.5L929.6 135.6 919.7 139.6C919 140 918.5 141.2 918.8 141.8 919.4 142.7 920.1 143.2 921 142.7L931.4 138.6 930.4 146.2C930.5 147.1 931 148 931.7 148.1 932.4 148.2 933.1 147.9 933.5 147.4 933.5 147.4 933.7 147.2 933.6 146.7L935.1 136.9 943.5 133.3 941.2 152.5C940.9 153.5 941.5 154.3 942.6 154.4 943.1 154.4 943.5 154.3 943.9 153.8 944.1 153.5 944.3 153.3 944.5 153L947 131.9 953.9 129.2 969.4 141.1 968.2 149.4 949.8 157.1C948.7 157.5 948.4 158.4 949 159.3 949.1 160.2 950 160.5 951.1 160.1L967.8 153.1 966.7 162.4 958.5 165.8C957.9 166.1 957.5 167.1 957.6 168 958.2 168.8 959 169.4 959.8 168.8L966.1 166.4 964.9 176.3C964.6 177.3 965.4 177.9 966.3 178.2 966.8 178.2 967.4 177.8 967.8 177.3 967.8 177.3 968 177.1 968.2 176.8L969.5 166.2 975.9 171C976.4 171.4 977.5 171.5 978.1 170.7 978.7 170 978.3 168.9 977.8 168.5L969.9 162.4 971 153.2 986.5 165.1C987.2 165.6 988.3 165.3 988.9 164.5S989.4 162.8 988.6 162.3L971.6 149.2 972.6 141.5 990.8 134.1 997.4 139.2 994.7 159.6C994.8 160.5 995.4 161.4 996.3 161.7 996.8 161.6 997.4 161.3 997.8 160.8 998 160.6 998.2 160.3 998.1 159.9L1000.5 141.5 1007.9 147.2 1006.8 156.4C1006.7 157.1 1007.2 158 1008.2 158.3 1009.1 158.2 1009.9 157.6 1010.1 156.9L1010.9 149.5 1019 155.7C1019.5 156.1 1020.9 155.9 1021.3 155.4 1021.9 154.7 1021.7 153.3 1021.2 152.9L1013 146.7 1019.8 144.2C1020 144 1020.2 143.7 1020.4 143.5 1020.8 142.9 1020.9 142.2 1020.8 141.8 1020.3 141 1019.3 140.6 1018.4 140.7L1010 144.4 1002.6 138.7 1019.7 131.7C1020.8 131.3 1021.1 130.3 1020.8 129.7 1020.5 128.6 1019.5 128.3 1018.6 128.4L999.6 136.4 993 131.3 995.4 111.8 1002.6 108.8 1019.6 121.9C1020.3 122.5 1021.2 122.3 1021.8 121.6 1022.4 120.8 1022.3 119.9 1021.5 119.3L1006 107.5 1014.7 104 1022.6 110.1C1023.1 110.5 1024.4 110.3 1025 109.5 1025.6 108.8 1025.2 107.7 1024.7 107.3L1018.4 102.4 1028.3 98.4C1028.5 98.1 1028.5 98.1 1028.7 97.8 1029.1 97.3 1029.2 96.6 1029.2 96.2 1028.6 95.3 1027.7 95 1027 95.3ZM989.9 129L989.5 131.1 987.8 131.8 973.1 137.8 971.3 138.5 969.8 137.4 957.4 127.8 955.8 126.6 956.1 124.8 958.1 109 958.3 107.2 960.2 106.2 974.7 100.4 976.7 99.5 978.2 100.6 990.6 110.2 992.2 111.3 991.8 113.5 989.9 129Z" fill="rgba(250, 112, 154, 1)"></path></g><defs><mask id="SvgjsMask1008"><rect width="1440" height="870" fill="#ffffff"></rect></mask><filter id="SvgjsFilter1009"><feGaussianBlur stdDeviation="1"></feGaussianBlur></filter></defs></svg>