<svg xmlns="http://www.w3.org/2000/svg" version="1.1" xmlns:xlink="http://www.w3.org/1999/xlink" xmlns:svgjs="http://svgjs.com/svgjs" width="1440" height="710" preserveAspectRatio="none" viewBox="0 0 1440 710">
    <g mask="url(&quot;#SvgjsMask3262&quot;)" fill="none">
        <rect width="1440" height="710" x="0" y="0" fill="url(#SvgjsLinearGradient3263)"></rect>
        <circle r="8.025" cx="747.475" cy="190.555" filter="url(#SvgjsFilter3264)" fill="rgba(250, 112, 154, 1)"></circle>
        <circle r="10.93" cx="1271.98" cy="47.35" filter="url(#SvgjsFilter3264)" fill="rgba(250, 112, 154, 1)"></circle>
        <circle r="7.155" cx="1419.955" cy="581.375" filter="url(#SvgjsFilter3264)" fill="rgba(92, 157, 241, 1)"></circle>
        <circle r="9.23" cx="864.86" cy="52.57000000000001" filter="url(#SvgjsFilter3264)" fill="rgba(250, 112, 154, 1)"></circle>
        <circle r="7.34" cx="963.82" cy="627.14" filter="url(#SvgjsFilter3264)" fill="rgba(250, 112, 154, 1)"></circle>
        <circle r="6.415" cx="439.185" cy="615.395" filter="url(#SvgjsFilter3264)" fill="rgba(92, 157, 241, 1)"></circle>
        <circle r="10.155" cx="1296.975" cy="386.18499999999995" filter="url(#SvgjsFilter3264)" fill="rgba(250, 112, 154, 1)"></circle>
        <circle r="8.975" cx="833.715" cy="607.095" filter="url(#SvgjsFilter3264)" fill="rgba(250, 112, 154, 1)"></circle>
        <circle r="6.535" cx="317.165" cy="643.7149999999999" filter="url(#SvgjsFilter3264)" fill="rgba(250, 112, 154, 1)"></circle>
        <circle r="8.015" cx="837.835" cy="676.925" filter="url(#SvgjsFilter3264)" fill="rgba(92, 157, 241, 1)"></circle>
        <circle r="9.09" cx="746.0400000000001" cy="175.17000000000002" filter="url(#SvgjsFilter3264)" fill="rgba(92, 157, 241, 1)"></circle>
        <circle r="7.67" cx="952.4699999999999" cy="197.36999999999998" filter="url(#SvgjsFilter3264)" fill="rgba(250, 112, 154, 1)"></circle>
        <circle r="9.46" cx="572.9000000000001" cy="200.42000000000002" filter="url(#SvgjsFilter3264)" fill="rgba(250, 112, 154, 1)"></circle>
        <circle r="11.08" cx="1388.55" cy="322.84" filter="url(#SvgjsFilter3264)" fill="rgba(250, 112, 154, 1)"></circle>
        <circle r="10.23" cx="193.57" cy="107.3" filter="url(#SvgjsFilter3264)" fill="rgba(250, 112, 154, 1)"></circle>
        <circle r="11.135" cx="596.615" cy="665.475" filter="url(#SvgjsFilter3264)" fill="rgba(250, 112, 154, 1)"></circle>
        <circle r="9.885" cx="745.675" cy="421.385" filter="url(#SvgjsFilter3264)" fill="rgba(250, 112, 154, 1)"></circle>
        <circle r="10.045" cx="949.515" cy="162.295" filter="url(#SvgjsFilter3264)" fill="rgba(250, 112, 154, 1)"></circle>
        <circle r="6.625" cx="1074.025" cy="450.085" filter="url(#SvgjsFilter3264)" fill="rgba(92, 157, 241, 1)"></circle>
        <circle r="6.525" cx="1135.845" cy="576.265" filter="url(#SvgjsFilter3264)" fill="rgba(250, 112, 154, 1)"></circle>
        <path d="M1318.9 455.7L1317.7 478 1306.1 471.1C1304.9 470.3 1302.9 470.6 1301.5 472.1 1301 473.8 1301.3 475.8 1303 476.3L1317.2 485.5 1317 502.9 1287.4 483.8C1285.7 483.3 1283.7 483.6 1282.9 484.7 1281.8 486.8 1282.1 488.8 1283.8 489.3L1316.6 510.4 1315.4 537 1291.6 517.8 1293.9 548.4 1271.3 534.2 1272.5 495.3C1273.1 495 1272.8 494.4 1272.5 493.8 1271.9 492.7 1270.7 491.9 1269.3 491.9 1267.8 491.9 1266.4 493.4 1265.9 495.1L1264.9 530.3 1250.4 520.6 1250.9 503.7C1251.2 502.9 1250.9 502.3 1250.6 501.7 1250.3 501.2 1249.1 500.3 1247.7 500.3 1246.3 500.4 1244.9 501.8 1244.9 503.3L1244 516.7 1224.9 505.1C1223.4 503.7 1221.7 504.6 1220.3 506.1 1219.5 507.2 1219.8 509.2 1221.8 510.3L1240.4 522.3 1228.5 528.5C1226.8 529.4 1226.6 531.7 1227.2 532.8 1228.1 534.5 1229.8 535.1 1231.5 534.2L1246.8 526.1 1261.3 535.9 1230.7 551.9C1229 552.8 1228.5 554.6 1229.4 556.3 1230 557.4 1232 558.5 1233.7 557.6L1267.7 539.7 1290.3 553.9 1262.2 565 1289.4 578.2 1265.6 590.7 1233.1 570.2C1231.1 569.1 1229.4 570 1228.5 571.2 1227.7 572.3 1228 574.3 1229.5 575.7L1259.3 594 1244 602 1229.3 593.2C1227.8 591.8 1225.8 592.1 1224.7 594.1 1223.9 595.3 1224.2 597.3 1226.2 598.4L1237.2 605.6 1217.4 616C1215.7 616.9 1215.2 618.7 1216.1 620.4S1218.7 622.6 1220.4 621.7L1240.2 611.3 1239.9 624.5C1239.7 626.8 1241.1 628.2 1242.6 628.1 1244.9 628.4 1246.3 626.9 1245.9 624.9L1247 607.7 1262.3 599.7 1260.4 634.6C1260.8 636.6 1262.2 638 1263.7 638 1266 638.2 1267.4 636.8 1267 634.8L1268.5 596.4 1292.3 583.9 1287.8 613.8 1312.9 596.9 1311.7 623.6 1277.8 641.4C1276.1 642.3 1275.8 644.6 1276.4 645.8 1277.3 647.5 1279 648 1280.7 647.1L1311.9 630.7 1311.1 648.5 1295.8 656.5C1294.1 657.4 1293.6 659.2 1294.5 660.9 1295.1 662 1297.1 663.1 1298.8 662.2L1310.7 655.9 1310 678C1309.8 680.3 1311.2 681.7 1313.2 681.4 1314.6 681.3 1316.3 680.4 1316 678.5L1317.3 656.1 1328.9 663C1330 663.9 1332 663.5 1332.9 662.4 1333.7 661.2 1333.7 659.8 1333.4 659.2 1333.1 658.6 1332.8 658.1 1331.9 657.8L1317.7 648.6 1317.9 631.2 1347.5 650.3C1349.2 650.9 1351.2 650.5 1352.1 649.4 1352.9 648.2 1352.9 646.8 1352.3 645.7 1352 645.1 1352 645.1 1351.1 644.8L1318.3 623.7 1319.5 597.1 1343.4 616.3 1341 585.8 1363.7 599.9 1362.4 638.9C1362.5 640.3 1363.4 642 1365.7 642.2 1367.1 642.2 1368.5 640.7 1369 639L1370 603.8 1384.5 613.5 1384 630.4C1383.5 632.1 1385 633.5 1387.2 633.8 1388.7 633.7 1390.1 632.3 1390.6 630.6L1390.9 617.4 1410.1 629C1411.5 630.4 1413.2 629.5 1414.6 628.1 1414.9 627.2 1414.9 625.8 1414.6 625.2 1414.3 624.6 1414 624.1 1413.1 623.8L1394.5 611.9 1406.4 605.6C1408.1 604.7 1408.4 602.4 1407.8 601.3L1407.8 601.3C1406.9 599.6 1405.1 599.1 1403.4 600L1388.2 608 1373.6 598.3 1404.2 582.2C1405.9 581.3 1406.5 579.6 1405.6 577.9S1403 575.6 1401.3 576.5L1367.3 594.4 1344.6 580.2 1372.8 569.1 1345.6 555.9 1369.4 543.4 1401.9 563.9C1403.9 565 1405.6 564.1 1406.4 563 1407.3 561.8 1406.9 559.8 1405.5 558.4L1376.2 539.8 1390.9 532.1 1405.7 540.9C1407.1 542.3 1409.1 542 1410.2 540 1411.1 538.8 1410.8 536.8 1409.3 535.4L1397.7 528.5 1417.5 518.1C1419.2 517.2 1419.8 515.5 1418.9 513.8S1416.2 511.5 1414.6 512.4L1394.7 522.8 1395 509.7C1395.3 508.8 1395 508.2 1394.7 507.7 1394.1 506.5 1393.2 506.3 1392.4 506 1390.1 505.8 1388.7 507.2 1389 509.2L1387.9 526.4 1372.6 534.4 1374.5 499.5C1374.2 498.9 1373.9 498.4 1373.6 497.8 1373 496.7 1372.1 496.4 1371.3 496.1 1369 495.9 1367.6 497.3 1367.9 499.3L1366.4 537.7 1342.6 550.2 1347.2 520.4 1322 537.2 1323.2 510.5 1357.2 492.7C1358.9 491.8 1359.1 489.5 1358.5 488.4 1357.6 486.7 1355.9 486.1 1354.2 487L1323.6 503.1 1323.8 485.6 1339.1 477.6C1340.8 476.7 1341.4 475 1340.5 473.3S1337.8 471 1336.1 471.9L1324.2 478.2 1324.9 456.1C1325.2 455.3 1324.9 454.7 1324.6 454.1 1324.3 453.6 1323.2 452.7 1321.7 452.7 1320.3 452.8 1318.6 453.7 1318.9 455.7ZM1338.8 533.4L1335 557.8 1357.3 568.5 1334 577.9 1335.9 602.2 1316.4 587.1 1296.1 600.7 1299.9 576.3 1277.6 565.6 1300.4 556.5 1299 531.9 1317.9 547.3 1338.8 533.4Z" fill="rgba(250, 112, 154, 1)"></path>
        <path d="M95.8 104.6L103.3 130 99.9 136.5 83.6 137 79.6 130.7 85.9 104.9C85.9 104.6 85.9 104.6 85.9 104.3 85.8 103.6 85.5 103 84.5 102.7 83.6 102.7 82.9 103.1 82.7 104L77.2 126.6 71.2 116.9 73.5 106.9C73.5 106.9 73.4 106.5 73.4 106.5 73.4 105.9 73.1 105.3 72.1 105 71.5 104.7 70.5 105.4 70.2 106.3L68.5 112.8 64.1 105.5C63.8 104.9 62.8 104.6 61.9 105S61 106.6 61.3 107.5L65.7 114.5 59.2 113C58.3 112.8 57.3 113.4 57 114.4 57 115 57.4 116 58.4 116.3L68.4 118.5 74.4 128.6 51.8 123.2C50.9 122.9 49.9 123.6 49.6 124.2 49.7 125.2 50 126.1 51 126.4L76.8 132.4 80.8 139 73.2 153 65.5 153.2 46.1 135.2C45.5 134.6 44.5 134.6 43.9 135.3S43.3 136.9 43.9 137.5L61 153.3 49.2 153.7 42 146.8C41.3 146.2 40.4 146.3 39.4 146.9S38.8 148.5 39.5 149.2L44.7 153.8 36.1 154.1C35.1 154.1 34.5 155.1 34.6 156 34.6 157 35.2 157.6 36.2 157.6L44.8 157.3 40.2 162.3C39.2 162.9 39.3 163.9 40.2 164.5 40.9 165.1 41.9 165.1 42.5 164.4L49.3 157.2 61.2 156.8 45 173.6C44.4 174.3 44.4 175.6 45.1 176.2S46.7 176.8 47.3 176.1L65.6 156.7 73.3 156.5 81.7 170.3 78.1 176.8 52.7 184.3C51.7 184.7 51.4 185.6 51.5 186.6 51.8 187.5 52.8 187.8 53.7 187.8L75.9 181.1 70.5 191.1 60.6 194C59.7 194.3 59.4 195.3 59.4 196.3 59.8 196.9 60.7 197.5 61.7 197.2L68 195.4 64.1 202.9C63.8 203.5 64.1 204.5 64.8 205.1 65.8 205.4 66.7 205 67 204.4L71 196.9 73.1 203.6C73.4 204.2 74.4 204.8 75 204.5 76 204.4 76.3 203.8 76.3 202.8 76.3 202.8 76.3 202.5 76.3 202.5L73.4 192.7 78.9 182.6 85.6 204.8C86 205.7 86.6 206.4 87.6 206 88.5 205.7 88.8 205 88.8 204.4 88.8 204.1 88.8 204.1 88.8 204.1L81 178.4 84.6 171.8 101 171.4 104.7 177.7 98.7 203.8C98.4 204.4 99.1 205.4 99.7 205.7 100.7 206 101.6 205.3 101.9 204.3L107.3 181.7 113.4 191.5 111.1 201.5C110.8 202.5 111.2 203.4 112.1 203.4 113.1 203.7 114 203 114.3 202.3L115.8 195.6 120.1 202.8C120.8 203.4 121.8 203.7 122.7 203.4 123 203.1 123.3 202.4 123.3 201.8 123.3 201.4 123.3 201.4 123 201.1L118.6 193.9 125.3 195.3C126.3 195.6 126.9 194.9 127.2 194.3 127.2 194 127.2 194 127.2 193.6 127.2 193 126.9 192.4 126.2 192.1L116.2 189.8 110.2 180.1 132.7 185.5C133.7 185.5 134.7 185.1 134.6 184.1 134.9 183.8 134.9 183.8 134.9 183.5 134.9 182.9 134.2 182.2 133.6 181.9L107.5 176 103.8 169.7 111.4 155.4 118.7 155.2 138.2 173.5C138.8 174.1 140.1 174.1 140.7 173.4S141.3 171.5 140.6 170.8L123.5 155 135 154.7 142.6 161.5C143.3 162.1 144.2 162.1 144.8 161.4 145.5 160.8 145.4 159.8 144.8 159.2L139.8 154.5 148.5 154.3C149.1 154.3 150.1 153.6 150 152.6 150 151.7 149 150.7 148.4 150.8L139.7 151 144.4 146.1C144.7 145.8 145 145.4 145 145.1 145 144.5 144.7 144.2 144.3 143.8 143.7 143.2 142.7 143.3 142.1 143.9L134.9 151.2 123.4 151.5 139.6 134.7C139.9 134.4 139.9 134.1 139.9 133.4 139.9 133.1 139.8 132.8 139.5 132.5 138.9 131.8 137.6 131.9 137 132.5L118.6 151.6 111.3 151.9 102.9 138.3 106.2 131.5 131.9 124C132.5 123.7 133.2 123 133.1 122.4 133.1 122.1 133.1 122.1 132.8 122.1 132.8 121.1 131.8 120.5 130.8 120.9L108.6 127.6 114.1 117.2 123.9 114.3C124.6 114 124.9 113.4 124.8 112.7 124.8 112.7 124.8 112.4 124.8 112.4 124.8 111.4 123.8 110.8 122.9 111.2L116.2 113.3 120.2 105.8C120.5 105.5 120.5 105.2 120.5 104.8 120.4 104.2 120.1 103.6 119.8 103.6 118.8 103 117.8 103.3 117.2 104L113.3 111.5 111.5 105.1C111.1 104.2 110.2 103.5 109.2 103.9 108.6 104.2 108 105.2 108.3 105.8L111.2 115.7 105.7 125.8 99 103.6C98.6 102.6 97.6 102.3 96.7 102.3 96.1 102.7 95.4 103.7 95.8 104.6ZM85.6 140.4L98.1 140.1 100 140 101 141.6 107.4 152 108.4 153.9 107.5 155.5 101.8 166.2 100.9 167.8 98.9 167.9 86.5 168.3 84.5 168.3 83.5 166.8 77.1 156.4 76.1 154.8 77 152.9 82.8 142.1 83.7 140.5 85.6 140.4Z" fill="rgba(250, 112, 154, 1)"></path>
        <path d="M1373.5 251.7L1362.3 252.4 1365 246.2C1365.4 245.6 1365.1 244.6 1364.3 244 1363.4 243.9 1362.4 244.1 1362.3 245L1358.6 252.6 1349.9 253.5 1357.7 237.7C1357.8 236.8 1357.6 235.9 1356.9 235.5 1355.9 235.1 1354.9 235.4 1354.7 236.2L1346.1 253.7 1332.8 254.7 1341 241.7 1326 244.7 1331.7 232.6 1351.1 231C1351.3 231.2 1351.6 231 1351.8 230.9 1352.3 230.5 1352.7 229.9 1352.6 229.2 1352.5 228.5 1351.7 227.8 1350.8 227.7L1333.3 229.2 1337.2 221.4 1345.7 220.7C1346.1 220.8 1346.4 220.6 1346.6 220.5 1346.9 220.3 1347.3 219.6 1347.2 218.9 1347.1 218.2 1346.3 217.6 1345.5 217.7L1338.8 218.1 1343.5 207.9C1344.1 207.1 1343.5 206.3 1342.7 205.7 1342.1 205.3 1341.1 205.6 1340.7 206.7L1335.9 216.6 1332.1 211C1331.5 210.2 1330.4 210.3 1329.8 210.6 1329 211.2 1328.9 212 1329.4 212.8L1334.3 220 1330.3 227.7 1320.6 213.5C1320 212.7 1319.1 212.5 1318.3 213.1 1317.8 213.4 1317.4 214.5 1317.9 215.3L1328.7 231.1 1323 243.2 1315.9 229.9 1310.9 244.1 1303.3 233 1311.6 215.7C1312 214.6 1311.5 213.8 1310.9 213.5 1310.3 213.1 1309.3 213.4 1308.7 214.2L1301.3 230.1 1296.4 223 1300 215.1C1300.6 214.3 1300.3 213.4 1299.2 212.9 1298.6 212.6 1297.6 212.8 1297.2 213.9L1294.3 219.8 1287.9 210.6C1287.4 209.8 1286.5 209.6 1285.7 210.1S1284.8 211.6 1285.3 212.4L1291.6 221.6 1285.1 222.2C1283.9 222.2 1283.3 223 1283.4 223.8 1283.4 224.9 1284.2 225.5 1285.2 225.2L1293.8 224.8 1298.7 231.9 1281.2 233C1280.2 233.3 1279.6 234.1 1279.7 234.8 1279.7 236 1280.5 236.6 1281.5 236.3L1300.7 234.8 1308.2 245.9 1293.1 245.4 1302.9 256.9 1289.6 257.9 1278.8 242C1278.3 241.2 1277.1 241.2 1276.6 241.6 1275.8 242.1 1275.6 243 1276.2 243.8L1286.1 258.3 1277.2 259 1272.4 251.8C1271.8 251 1270.9 250.9 1270.1 251.4 1269.6 251.8 1269.2 252.9 1269.7 253.6L1273.5 259.2 1262.5 260.1C1261.4 260.1 1260.7 260.9 1261 261.9 1261.1 262.6 1261.7 263.4 1262.6 263.1L1273.8 262.5 1271 268.6C1270.7 269.3 1271 270.2 1271.6 270.6 1272.2 270.9 1272.9 270.8 1273.2 270.6 1273.5 270.5 1273.7 270.3 1273.8 269.8L1277.5 262.3 1286.2 261.4 1278.4 277.2C1278.3 278 1278.5 279 1279.2 279.4 1279.8 279.7 1280.5 279.6 1281 279.3 1281.3 279.1 1281.3 279.1 1281.4 278.6L1289.9 261.1 1303.3 260.2 1295.1 273.1 1310.1 270.2 1304.4 282.3 1285 283.9C1284.3 284 1283.5 284.6 1283.5 285.7 1283.6 286.4 1284.4 287 1285.3 287.2L1302.8 285.7 1298.8 293.4 1290.4 294.1C1289.5 294 1288.9 294.8 1288.9 295.9 1289 296.6 1289.8 297.3 1290.7 297.4L1297.3 296.8 1292.6 307C1292 307.8 1292.5 308.6 1293.3 309.2 1293.8 309.3 1294.5 309.2 1294.8 309 1295 308.8 1295.3 308.6 1295.4 308.2L1300.2 298.3 1304 303.8C1304.6 304.6 1305.7 304.6 1306.2 304.3L1306.2 304.3C1307 303.7 1307.2 302.8 1306.7 302L1301.8 294.9 1305.8 287.1 1315.5 301.4C1316.1 302.2 1317 302.4 1317.8 301.8S1318.7 300.4 1318.2 299.6L1307.3 283.7 1313.1 271.7 1320.2 285 1325.2 270.8 1332.8 281.9 1324.5 299.2C1324 300.2 1324.6 301 1325.2 301.4 1325.8 301.7 1326.8 301.4 1327.4 300.6L1335 285 1339.7 291.9 1336.1 299.7C1335.5 300.6 1335.8 301.5 1336.8 302 1337.5 302.3 1338.4 302 1339.1 301.2L1341.8 295.1 1348.1 304.3C1348.7 305.1 1349.6 305.3 1350.4 304.7S1351.3 303.3 1350.8 302.5L1344.5 293.3 1351 292.6C1351.5 292.7 1351.7 292.6 1352 292.4 1352.5 292 1352.6 291.6 1352.7 291.1 1352.7 290 1351.9 289.4 1350.9 289.6L1342.3 290.1 1337.4 283 1354.9 281.9C1355.2 281.7 1355.4 281.5 1355.7 281.3 1356.2 281 1356.3 280.5 1356.4 280.1 1356.4 278.9 1355.6 278.3 1354.6 278.6L1335.4 280 1327.9 269 1342.9 269.5 1333.1 258 1346.4 257 1357.3 272.9C1357.8 273.7 1359 273.7 1359.5 273.3 1360.3 272.8 1360.5 271.9 1359.9 271.1L1350.2 256.8 1358.9 255.9 1363.7 263C1364.3 263.8 1365.2 264 1366 263.5S1366.9 262 1366.4 261.2L1362.6 255.7 1373.6 254.8C1374 254.8 1374.3 254.7 1374.5 254.5 1374.8 254.3 1375.2 253.7 1375.1 253 1375 252.3 1374.4 251.5 1373.5 251.7ZM1336 266.1L1323.6 265.6 1319.6 277.3 1313.6 266.3 1301.7 268.6 1308 258.1 1300.1 248.8 1312.4 249.2 1316.5 237.6 1322.3 248.3 1334.4 246.2 1327.9 256.5 1336 266.1Z" fill="rgba(92, 157, 241, 1)"></path>
        <path d="M766 498.6L776 446.6 787.9 438.1 817.3 452.2 818.7 467.1 783.9 507.2C783.6 507.8 783.6 507.8 783.4 508.3 782.8 509.5 782.8 510.9 784.3 512.3 786 513.2 787.4 513.1 788.8 511.7L819.2 476.5 821 499.4 807.8 515.1C807.8 515.1 807.5 515.7 807.5 515.7 807 516.8 807 518.2 808.4 519.7 809.3 520.8 811.6 520.5 813 519L822 509.1 823.2 526C823.2 527.4 824.6 528.8 826.6 529.1S829.8 527 830 525L828.6 508.7 838.8 517.1C840.2 518.5 842.5 518.2 843.9 516.8 844.4 515.6 844.7 513.6 843.2 512.2L827.6 499 826 475.6 861.2 505.9C862.6 507.3 864.9 507 866 506.1 866.9 504.4 867.1 502.3 865.7 500.9L825.3 466.7 824.2 451.3 850.5 433.4 864.4 440 882.4 489.8C883 491.5 884.7 492.3 886.4 491.7S889 489.4 888.3 487.7L872.4 443.9 893.8 454.1 900.4 472.9C901 474.6 902.7 475.4 905 475.1S907.6 472.8 907 471L901.9 458 917.5 465.4C919.2 466.3 921.2 465.1 922 463.3 922.8 461.6 922.2 459.9 920.5 459.1L904.9 451.6 917.7 447.1C920 446.8 920.8 445 919.7 443.1 919.1 441.4 917.3 440.5 915.6 441.1L896.8 447.7 875.5 437.5 919.6 422.5C921.3 421.9 922.4 419.5 921.8 417.8S919.5 415.3 917.8 415.9L867.4 433.6 853.5 427 851.3 394.7 863.7 386.5 915.7 396.5C917.7 396.7 919.1 395.3 920 393.5 920.2 391.5 918.8 390.1 917 389.3L871.4 380.9 890.3 368 910.4 371.9C912.5 372.2 913.9 370.7 914.7 369 914.7 367.6 913.5 365.6 911.5 365.3L898.6 362.7 912.4 353C913.5 352.1 913.8 350.1 913.2 348.4 911.7 347 909.7 346.8 908.6 347.6L894.7 357.3 897.1 343.5C897.1 342.1 895.9 340.1 894.5 340.1 892.7 339.3 891.6 340.2 890.8 341.9 890.8 341.9 890.5 342.5 890.5 342.5L886.5 362.6 867.6 375.5 876 329.9C876.2 327.9 875.6 326.2 873.6 325.9 871.6 325.6 870.5 326.5 869.9 327.7 869.6 328.3 869.6 328.3 869.6 328.3L859.9 381.1 847.5 389.3 818 375.2 817.2 360.6 851.7 319.7C852.9 318.8 852.5 316.5 851.7 315.4 850.2 314 847.9 314.3 846.5 315.8L816.2 350.9 814.4 328 827.6 312.4C829 310.9 829.2 308.9 827.5 308.1 826 306.7 823.8 307 822.6 307.9L813.9 318.6 812.8 301.7C812.2 300 810.7 298.6 808.7 298.4 807.9 298.7 806.7 299.5 806.2 300.7 805.9 301.3 805.9 301.3 806.2 302.1L807.4 319 796.6 310.3C795.2 308.9 793.5 309.5 792.3 310.4 792.1 311 792.1 311 791.8 311.5 791.2 312.7 791.2 314.1 792.1 315.3L807.8 328.4 809.6 351.3 774.5 321C772.7 320.2 770.7 319.9 769.9 321.6 769.1 321.9 769.1 321.9 768.8 322.5 768.2 323.7 768.8 325.4 769.7 326.5L810.6 361 811.5 375.6 784.9 394.1 771.6 387.7 753.9 337.4C753.3 335.7 750.9 334.6 749.2 335.2S746.4 338.1 747 339.8L762.9 383.6 742.2 373.6 735 354.6C734.4 352.9 732.6 352 730.9 352.6 729.2 353.2 728.4 355 729 356.7L733.5 369.5 717.9 362C716.8 361.5 714.5 361.8 713.6 363.5 712.8 365.3 713.7 367.8 714.9 368.4L730.5 375.8 717.6 380.3C716.8 380.6 715.9 380.9 715.7 381.5 715.1 382.7 715.4 383.5 715.7 384.4 716.3 386.1 718 386.9 719.8 386.3L739.1 380 759.9 389.9 715.8 405C714.9 405.3 714.6 405.9 714.1 407 713.8 407.6 713.5 408.2 713.8 409 714.4 410.7 716.7 411.8 718.5 411.2L768.5 394.1 781.8 400.4 784.4 432.2 772.2 441.3 719.6 431C718.2 431 716.5 431.6 716 432.8 715.7 433.3 715.7 433.3 716.3 433.6 715.4 435.3 716.6 437.3 718.6 437.6L764.3 446 745 459.5 724.9 455.5C723.5 455.5 722.4 456.4 721.8 457.6 721.8 457.6 721.5 458.1 721.5 458.1 720.7 459.9 721.9 461.9 723.9 462.1L737.7 464.4 723.8 474.1C723 474.4 722.7 475 722.4 475.6 721.8 476.7 721.9 478.2 722.5 478.4 723.6 480.4 725.6 480.7 727.3 480.1L741.2 470.4 738.6 483.3C738.3 485.3 739.5 487.3 741.5 487.6 742.9 487.5 744.9 486.4 744.9 484.9L748.8 464.8 767.8 451.9 759.4 497.6C759.2 499.6 760.6 501 762.3 501.8 763.8 501.8 765.8 500.6 766 498.6ZM816.9 444.2L794.4 433.4 790.9 431.8 790.6 428.1 788.7 403.8 788.7 399.5 791.8 397.4 811.9 383.6 815 381.6 818.5 383.2 841 394 844.4 395.7 844.8 399.4 846.6 423.7 847 427.4 843.6 430 823.5 443.8 820.4 445.9 816.9 444.2Z" fill="rgba(250, 112, 154, 1)"></path>
        <path d="M744.2 572.5L742.5 587.5 734.1 581.8C733.3 581.1 731.8 581.2 730.7 582.3 730.2 583.5 730.3 585 731.2 585.7L742 593.5 740.3 607.4 718.5 591.4C717 590.5 715.5 590.6 715 591.9 713.9 592.9 714 594.4 715.5 595.4L739.7 612.9 738.5 625.6 711.8 637.5 702.6 631.1 706.3 599.5C706.1 599.1 705.9 598.6 705.7 598.2 705.5 597.7 704.7 597.1 704 596.8 702.3 596.5 701.2 597.6 701.4 599.1L698 627.9 687 619.7 688.2 605C688.7 604.8 688.5 604.3 688.3 603.9 687.9 603 687.1 602.3 686 602.3 684.9 602.2 683.8 603.3 683.3 604.5L682.4 616.5 668.4 606.5C667.6 605.8 666.1 606 664.9 607 664.5 608.2 664.6 609.8 665.4 610.4L678.6 619.8 669.4 623.9C668.1 624.5 667.8 626.2 668.2 627.1 668.8 628.4 670.2 629.3 671.5 628.7L683.4 623.4 694.4 631.6 669.9 642.6C668.6 643.2 668.1 644.5 668.7 645.8 669.3 647.1 670.5 647.6 671.8 647L699 634.8 708.8 641.5 705.6 670.8 695.6 675.3 670.8 657.5C669.7 656.4 667.8 656.7 667.3 658 666.2 659 666.8 660.3 667.8 661.5L690.3 677.7 677.6 683.4 666.6 675.2C665.7 674.5 663.8 674.8 663.1 675.7S662.8 678.4 663.8 679.6L672.4 685.7 657 692.6C655.7 693.2 655.4 694.9 656 696.2 656.4 697.1 657.9 698 659.2 697.4L674.5 690.5 673.6 701.5C673.6 702.5 674.2 703.8 675.9 704.1 676.9 704.2 678.5 702.9 678.5 701.9L679.8 688.2 692.5 682.5 689.6 710.1C689.7 711.6 690.3 712.9 692 713.2 693.1 713.2 694.7 712 694.7 710.9L697.7 680.1 707.8 675.6 731.8 692.7 730.2 704.5 703.1 716.7C701.7 717.3 701.3 718.5 701.8 719.8 702.4 721.2 703.9 722.1 705.2 721.5L729.7 710.5 728.5 724.2 716.7 729.5C715.4 730.1 714.9 731.3 715.5 732.7 716.1 734 717.3 734.5 718.7 733.9L727.9 729.7 726.1 745.8C726.1 746.9 727.3 748.4 728.4 748.5 729.9 748.3 731.2 747.7 731 746.2L733 729.5 742.4 736.4C743.7 736.9 745.2 736.7 745.9 735.9 746.5 735 746.6 734 746.2 733.1 746.2 733.1 746 732.7 745.4 732.4L733.5 723.5 734.7 709.8 758.5 726.5C759.5 727.7 761 727.5 762 726 762.2 725.4 762.4 724.8 762.1 723.9 761.9 723.5 761.7 723 761.5 722.6L735.4 704.3 736.7 693.2 763.4 681.2 773.6 688.7 770.7 718.5C770.4 720.2 771.4 721.3 772.9 721.1 774.2 721.6 775.3 720.6 775.6 718.9L778.2 691.9 789.7 699.9 788.3 713.2C788.2 714.3 789.3 715.4 790.5 715.9 792 715.7 793.4 715.1 793.2 713.6L794.5 703.6 806.8 712.2C807.8 713.4 809.1 712.8 810.3 711.8 810.5 711.1 810.5 710 810.2 709.2 810.2 709.2 810 708.7 809.8 708.3L796.6 698.9 807.6 694C808.5 693.6 809.4 692.2 808.8 690.8 808.2 689.5 806.5 689.2 805.6 689.6L792 695.7 780.6 687.7 807.3 675.7C808.6 675.2 808.9 673.4 808.3 672.1S806.4 670.3 805.1 670.9L775.8 684.1 766.4 677.2 769.6 647.9 781 642.8 806 661.1C807.2 661.6 808.7 661.4 809.9 660.4 810.1 659.7 810.1 658.7 809.8 657.8 809.6 657.4 809.4 656.9 808.7 656.7L786.2 640.5 798.9 634.8 810.4 642.8C811.2 643.5 812.7 643.3 813.8 642.3 814.3 641 814.2 639.5 813.4 638.8L804.2 632.4 818.2 626.1C819.1 625.8 819.8 623.8 819.4 623 818.8 621.7 816.9 620.9 816 621.3L802 627.6 803.5 616.9C803.3 616.5 803.1 616.1 802.9 615.6 802.6 614.7 801.7 614.1 801.1 613.8 799.6 614 798.5 615 798 616.3L796.8 630 784 635.7 786.9 608.1C787.2 606.4 786.2 605.2 785.1 605.2 783.4 604.9 782.3 605.9 781.8 607.2L778.8 638 767.4 643.1 743.4 626 744.6 614.4 773.9 601.3C775.2 600.7 775.7 599.4 775.1 598.1 774.5 596.8 773.3 596.3 771.9 596.9L745.2 608.9 746.9 595 760.5 588.9C761.3 588.5 762.1 586.6 761.5 585.3 760.9 584 759.2 583.7 758.3 584.1L747.4 589 749.1 572.9C748.9 572.5 748.9 572.5 748.7 572.1 748.3 571.2 747.5 570.5 746.9 570.3 745.3 570.4 744.2 571.4 744.2 572.5ZM762.1 645.5L764.6 647.5 764.3 650.3 761.8 674 761.5 676.8 758.8 678 737.4 687.6 734.7 688.8 732.5 687.2 713.1 673.3 710.8 671.7 710.9 668.4 713.6 645.1 713.7 641.9 716.4 640.7 737.8 631.1 740.5 629.9 743 632 762.1 645.5Z" fill="rgba(92, 157, 241, 1)"></path>
        <path d="M472.6 296.1L453.5 307.7 452.6 294.2C452.6 292.8 451.2 291.3 449.2 291 447.5 291.6 446 293 446.6 294.7L447.1 311.6 432.6 321.3 431.6 286.1C431 284.3 429.6 282.9 428.2 282.9 425.9 283.1 424.4 284.5 425 286.2L426.2 325.2 403.6 339.3 405.9 308.7 382 328 380.9 301.4 413.7 280.3C414.2 280.6 414.5 280 414.8 279.4 415.4 278.3 415.4 276.9 414.6 275.7 413.8 274.5 411.8 274.2 410 274.8L380.4 293.9 380.2 276.4 394.5 267.3C395.3 267 395.6 266.4 395.9 265.9 396.2 265.3 396.2 263.9 395.4 262.7 394.6 261.6 392.6 261.2 391.4 262.1L379.8 269 378.6 246.6C378.9 244.6 377.2 243.7 375.2 243.4 373.8 243.4 372.3 244.8 372.5 247.1L373.2 269.1 361.3 262.9C359.6 262 357.6 263.1 357 264.2 356.1 265.9 356.7 267.6 358.4 268.5L373.6 276.6 373.9 294.1 343.3 278C341.6 277.1 339.8 277.6 339 279.3 338.4 280.4 338.6 282.7 340.3 283.6L374.3 301.5 375.5 328.2 350.3 311.3 354.9 341.2 331.1 328.7 329.6 290.3C329.3 288 327.6 287.1 326.2 287.1 324.8 287 323.3 288.4 323 290.4L324.8 325.4 309.5 317.4 308.5 300.2C308.8 298.2 307.4 296.7 305.1 296.9 303.7 296.9 302.2 298.3 302.4 300.6L302.7 313.8 282.9 303.4C281.2 302.5 279.5 303 278.6 304.7S278.2 308.1 279.9 309L299.8 319.4 288.7 326.7C286.7 327.8 286.4 329.8 287.2 330.9 288.3 332.9 290.3 333.3 291.8 331.9L306.6 323 321.9 331.1 292 349.3C290.5 350.7 290.2 352.7 291 353.9 292.1 355.9 294.1 356.3 295.6 354.9L328.1 334.3 351.9 346.8 324.7 360 352.8 371.2 330.2 385.3 296.2 367.5C294.5 366.6 292.5 367.7 291.9 368.8 291 370.5 291.5 372.2 293.2 373.1L324.4 389.5 309.3 398.9 294 390.9C292.3 390 290.6 390.5 289.7 392.2 289.1 393.4 289.3 395.7 291 396.6L302.9 402.8 284.4 414.7C282.3 415.8 282 417.8 283.4 419.3 284.2 420.5 285.9 421.4 287.4 420L306.5 408.3 307.4 421.8C307.4 423.2 308.8 424.7 310.2 424.7 311.6 424.7 312.8 423.9 313.1 423.3 313.4 422.8 313.7 422.2 313.4 421.4L312.9 404.4 327.4 394.7 328.4 430C329 431.7 330.4 433.1 331.8 433.2 333.2 433.2 334.4 432.4 335 431.2 335.3 430.7 335.3 430.7 335 429.8L333.8 390.9 356.4 376.7 354.1 407.3 377.9 388 379.1 414.7 346.3 435.8C345.2 436.6 344.3 438.3 345.4 440.3 346.2 441.5 348.2 441.8 349.9 441.3L379.5 422.1 379.8 439.6 365.5 448.8C363.8 449.3 363.5 451.3 364.6 453.3 365.4 454.5 367.4 454.8 369.1 454.3L380.2 447.1 381.4 469.4C381.1 471.4 382.8 472.3 384.8 472.6 385.7 472.4 386.8 471.5 387.1 471 387.4 470.4 387.7 469.8 387.5 469L386.8 446.9 398.7 453.2C400.4 454.1 402.4 452.9 403 451.8L403 451.8C403.9 450.1 403.3 448.4 401.6 447.5L386.3 439.4 386.1 422 416.7 438.1C418.4 439 420.1 438.4 421 436.7S421.4 433.3 419.7 432.4L385.7 414.5 384.5 387.9 409.7 404.7 405.1 374.9 428.9 387.4 430.4 425.8C430.7 428 432.4 428.9 433.8 429 435.2 429 436.7 427.6 437 425.6L435.7 390.9 450.4 398.7 451.5 415.9C451.2 417.9 452.6 419.3 454.9 419.1 456.3 419.1 457.8 417.7 458.1 415.7L457.2 402.3 477.1 412.7C478.8 413.6 480.5 413 481.4 411.3S481.7 407.9 480 407L460.2 396.6 471.2 389.4C472.1 389.1 472.4 388.5 472.7 388 473.3 386.8 473 386 472.8 385.1 471.7 383.1 469.7 382.8 468.2 384.2L453.4 393 438.1 385 468 366.7C468.3 366.1 468.6 365.6 468.9 365 469.5 363.9 469.2 363 468.9 362.1 467.8 360.1 465.8 359.8 464.4 361.2L431.9 381.7 408.1 369.2 435.3 356 407.2 344.8 429.8 330.7 463.8 348.6C465.5 349.5 467.5 348.4 468.1 347.2 469 345.5 468.5 343.8 466.8 342.9L436.2 326.8 450.7 317.1 466 325.1C467.7 326 469.4 325.5 470.3 323.8S470.7 320.4 469 319.5L457.1 313.2 475.6 301.3C476.5 301 476.8 300.5 477.1 299.9 477.4 299.3 477.4 297.9 476.6 296.7 475.7 295.6 474 294.7 472.6 296.1ZM419.8 356.5L397.6 367.3 401.3 391.7 380.4 377.8 361.5 393.1 362.9 368.5 340.2 359.5 362.4 348.8 358.6 324.4 379 338 398.5 322.9 396.5 347.2 419.8 356.5Z" fill="rgba(250, 112, 154, 1)"></path>
        <path d="M1066.3 481.8L1040 502.1 1010.7 498.1 1028.8 474.7 1061.7 470.7C1061.7 470.7 1062.1 470.6 1062.1 470.6 1062.8 470.3 1063.3 469.2 1063.3 468.3 1063.2 467.1 1062 466.3 1060.9 466.7L1032.1 470.3 1040.9 458.9 1053.6 457.2C1053.6 457.2 1053.9 457 1053.9 457 1054.7 456.7 1055.1 455.7 1055.2 454.8 1055.1 453.5 1053.9 452.7 1052.8 453.2L1044.1 454.2 1050.6 445.9C1051.2 445.2 1051 443.6 1050.3 443 1049.5 442 1048 442.6 1047.4 443.3L1040.9 451.6 1039.9 442.9C1039.8 441.6 1038.6 440.8 1037.5 441.3 1036.3 441.4 1035.5 442.6 1035.9 443.7L1037.7 456.4 1028.8 467.4 1025.2 438.6C1025.1 437.3 1023.9 436.5 1022.8 437 1021.5 437.1 1020.7 438.2 1021.2 439.4L1025.2 472.3 1007.1 495.7 995.7 468 1008.6 437.2C1009 436.1 1008.6 435 1007.5 434.6 1006.5 434.1 1005.4 434.6 1005 435.6L993.6 462.8 988.1 449.4 992.9 438C993.4 436.9 992.9 435.8 991.9 435.4 990.8 434.9 989.7 435.4 989.3 436.4L986 444.3 981.8 433.9C981.7 432.6 980.3 432.4 979.2 432.8 978 433.3 977.6 434.3 978.1 435.4L982 445 974.2 441.8C973.1 441.3 972 441.8 971.6 442.8S971.6 445 972.7 445.4L984.1 450.2 989.6 463.5 962.5 452.2C961.4 451.8 960.3 452.2 959.9 453.3 959.4 454.3 959.9 455.4 960.9 455.9L991.7 468.7 1003 496.1 973.7 492.1 954 466.5C953.2 465.5 952 465.6 950.8 466 949.9 466.9 950 468.1 950.4 469.2L968.1 492.3 953.9 490.3 946.2 480C945.4 479.1 944.1 479.2 943 479.6 942.1 480.5 942.1 481.7 942.4 482.5L947.9 489.3 937.4 488C936.5 487.9 935 488.5 935.1 489.8 935.2 491.1 935.6 492.2 936.9 492.1L947.4 493.4 940.5 498.8C939.5 499.6 939.6 500.9 939.9 501.6 940.6 502.2 941.7 502.7 942.4 502.4 942.4 502.4 942.8 502.2 942.8 502.2L953 494.5 967.2 496.5 944.2 514.2C943.2 515 943.3 516.2 943.6 517 944.3 517.6 945.4 518 946.1 517.7 946.1 517.7 946.5 517.6 946.5 517.6L972.7 497.3 1002 501.3 984 524.7 951 528.7C949.8 528.7 948.9 529.9 949.4 531 949.5 532.3 950.7 533.1 951.8 532.7L980.6 529.1 971.8 540.4 959.2 542.2C957.9 542.3 957.1 543.5 957.5 544.6 957.6 545.8 958.8 546.6 959.9 546.2L968.6 545.2 962.1 553.5C961.5 554.2 961.7 555.8 962.4 556.4 963.1 557 964 557.1 964.7 556.8 965.1 556.6 965.4 556.5 965.7 555.9L972.2 547.6 973.2 556.3C973.3 557.6 974.5 558.4 975.6 557.9 975.6 557.9 975.9 557.8 975.9 557.8 976.7 557.5 977.1 556.4 977.2 555.5L975.4 542.9 984.2 531.5 987.8 560.3C987.8 561.5 989 562.3 990.2 561.9 990.2 561.9 990.5 561.7 990.5 561.7 991.3 561.4 991.7 560.4 991.8 559.5L987.8 526.6 1005.8 503.1 1017.1 530.5 1004.2 561.3C1003.8 562.4 1004.2 563.5 1005.3 563.9 1006.3 564.4 1007.4 563.9 1007.8 562.9L1019.3 536.1 1024.8 549.4 1020 560.9C1019.6 561.9 1020 563 1021.1 563.5S1023.2 563.5 1023.7 562.4L1026.9 554.6 1030.9 564.2C1031.3 565.3 1032.4 565.8 1033.5 565.3 1034.6 564.8 1035 563.8 1034.6 562.7L1030.6 553.1 1038.5 556.3C1039 556.6 1039.5 556.8 1040.2 556.5S1041.2 555.7 1041.4 555.1C1041.9 554.1 1041.4 553 1040.4 552.5L1028.9 547.7 1023.4 534.4 1050.6 545.8C1051.1 546 1051.6 546.2 1052.3 545.9 1052.7 545.7 1053.3 545.1 1053.5 544.6 1054 543.5 1053.5 542.4 1052.5 542L1021.7 529.1 1010.4 501.7 1039.7 505.7 1060 531.9C1060.7 532.5 1061.7 533 1062.5 532.7 1062.5 532.7 1062.8 532.5 1062.8 532.5 1063.8 531.7 1063.7 530.4 1063.4 529.7L1045.8 506.7 1060 508.6 1067.6 518.9C1068.3 519.5 1069.3 519.9 1070.1 519.6 1070.1 519.6 1070.5 519.4 1070.5 519.4 1071.4 518.6 1071.3 517.4 1071 516.6L1065.6 509.8 1076.1 511.1C1076.5 510.9 1077 511.1 1077.4 511 1078.1 510.7 1078.7 510 1078.8 509.1 1078.7 507.9 1078.2 506.8 1077 506.8L1066.5 505.5 1073.3 500.1C1074.3 499.3 1074.2 498 1073.9 497.3 1073.1 496.3 1071.8 496.4 1071.1 496.7L1060.8 504.4 1046.6 502.4 1069.6 484.8C1070.6 483.9 1070.5 482.7 1070.2 481.9 1068.6 481.3 1067.2 481 1066.3 481.8Z" fill="rgba(250, 112, 154, 1)"></path>
        <path d="M501.3 732.7L499.2 716 508.7 719.6C509.7 720.1 511.1 719.6 511.9 718.3 512.1 716.9 511.6 715.5 510.3 715.3L498.6 710.5 496.4 697.5 520.8 707.8C522.1 707.9 523.6 707.4 524 706.5 524.6 704.8 524.1 703.4 522.7 703.2L495.7 692 493.1 672.1 513.3 683.2 507.5 661 526.1 668.4 530.3 697.3C529.9 697.6 530.2 698 530.5 698.4 531.1 699.1 532.1 699.6 533.1 699.4 534.2 699.2 535 697.9 535.2 696.6L531.3 670.4 543.3 675.7 545.1 688.2C545 688.9 545.3 689.3 545.6 689.7 545.9 690 546.9 690.5 547.9 690.3 549 690.1 549.8 688.8 549.6 687.8L548.5 677.7 564.2 683.8C565.4 684.6 566.6 683.7 567.4 682.5 567.9 681.5 567.4 680.1 565.7 679.5L550.4 673.2 558.4 667C559.5 666.1 559.4 664.4 558.8 663.6 557.9 662.5 556.6 662.3 555.4 663.2L545.2 671.1 533.2 665.9 553.7 650C554.8 649.1 555 647.7 554.1 646.6 553.5 645.8 551.9 645.3 550.7 646.2L528 663.9 509.4 656.4 528.7 644.5 506.9 638.3 522.8 625.9 549.5 636.8C551.1 637.3 552.3 636.5 552.7 635.5 553.2 634.5 552.7 633.1 551.4 632.2L527 622.7 537.2 614.7 549.3 619.3C550.6 620.2 552 619.7 552.5 618 553 617 552.5 615.6 550.9 615.1L541.8 611.2 555 600.9C556.2 600 556.3 598.6 555.4 597.5S553.2 596.2 552.1 597.1L538.8 607.4 537.3 597.6C537.2 595.9 535.9 595.1 534.9 595.3 533.1 595.4 532.3 596.7 532.8 598.1L534.3 610.9 524 618.9 520.8 592.8C520.3 591.4 519 590.6 518 590.8 516.3 590.9 515.4 592.2 515.9 593.6L519.9 622.1 504 634.5 503.4 611.9 487 627.6 484.4 607.8 507.1 590.1C508.3 589.2 508.1 587.5 507.5 586.7 506.7 585.6 505.3 585.4 504.2 586.3L483.3 602.5 481.6 589.3 491.8 581.3C492.9 580.5 493.1 579.1 492.2 578 491.6 577.2 490 576.7 488.8 577.6L480.9 583.7 478.5 567.4C478.4 565.6 477.1 564.8 475.7 565.3 474.6 565.5 473.5 566.4 474 567.8L476 584.5 466.5 580.9C465.6 580.5 464.1 581 463.7 581.9 463.2 582.9 463.4 583.9 463.7 584.3 464 584.7 464.3 585.1 465 585.2L476.7 590.1 478.8 603 454.5 592.7C453.1 592.6 451.7 593.1 451.2 594.1 450.7 595 451 596.1 451.5 596.8 451.8 597.2 451.8 597.2 452.5 597.3L479.5 608.5 482.1 628.4 462 617.3 467.8 639.6 449.2 632.1 444.9 603.2C444.7 602.1 443.8 601 442.1 601.1 441.1 601.3 440.2 602.6 440.1 603.9L444 630.1 432 624.8 430.1 612.3C430.3 610.9 429 610.1 427.3 610.2 426.2 610.4 425.4 611.7 425.2 613L426.7 622.8 411.1 616.7C409.8 615.9 408.7 616.8 407.8 618 407.8 618.7 408 619.8 408.3 620.1 408.6 620.5 408.9 620.9 409.5 621L424.8 627.3 416.9 633.5C415.7 634.4 415.8 636.1 416.4 636.9L416.4 636.9C417.3 638 418.7 638.2 419.8 637.3L430 629.4 442 634.6 421.6 650.5C420.4 651.4 420.3 652.8 421.1 653.9S423.4 655.2 424.5 654.3L447.2 636.7 465.8 644.1 446.5 656.1 468.3 662.2 452.4 674.6 425.7 663.7C424.1 663.2 423 664.1 422.5 665 422 666 422.5 667.4 423.8 668.3L447.9 678.1 438 685.8 425.9 681.2C424.7 680.4 423.2 680.9 422.7 682.5 422.2 683.5 422.7 684.9 424 685.7L433.5 689.3 420.2 699.6C419.1 700.5 418.9 701.9 419.8 703S422 704.3 423.2 703.4L436.4 693.1 437.9 702.9C437.9 703.5 438.2 703.9 438.4 704.3 439 705.1 439.7 705.1 440.4 705.2 442.1 705.1 442.9 703.8 442.4 702.4L441 689.6 451.2 681.6 454.4 707.7C454.7 708.1 455 708.4 455.3 708.8 455.9 709.6 456.6 709.7 457.3 709.7 459 709.6 459.8 708.4 459.3 706.9L455.4 678.4 471.3 666 471.9 688.6 488.2 672.9 490.9 692.7 468.1 710.4C467 711.3 467.1 713 467.7 713.8 468.6 714.9 469.9 715.1 471.1 714.2L491.5 698.3 493.7 711.2 483.4 719.2C482.3 720.1 482.1 721.4 483 722.5S485.3 723.8 486.4 723L494.4 716.8 496.7 733.2C496.7 733.8 497 734.2 497.3 734.6 497.5 735 498.5 735.4 499.6 735.2 500.6 735 501.8 734.1 501.3 732.7ZM476.3 677.9L475.9 659.4 458 654.4 474 644.4 469.4 626.8 485.7 635.3 498.9 622.6 499.4 641.1 517.2 646.1 501.6 655.8 505.9 673.7 489.9 664.9 476.3 677.9Z" fill="rgba(250, 112, 154, 1)"></path>
        <path d="M1001.9 221.6L1023.7 226.6 1014.9 236.9C1013.9 237.9 1013.9 239.9 1015.1 241.5 1016.7 242.3 1018.7 242.3 1019.6 240.7L1031 228.3 1048.2 231.5 1024.3 257.4C1023.5 259 1023.4 261 1024.4 262 1026.3 263.5 1028.3 263.5 1029.1 261.9L1055.4 233.1 1081.5 238.8 1058.5 259.1 1089 261.9 1071.2 281.8 1033 274C1032.8 273.4 1032.2 273.6 1031.6 273.8 1030.4 274.2 1029.4 275.2 1029.2 276.6 1029 278 1030.2 279.7 1031.8 280.5L1066.3 287.5 1054.3 300.1 1037.7 296.7C1036.9 296.3 1036.3 296.5 1035.7 296.7 1035.1 296.9 1034.1 297.9 1033.9 299.3 1033.6 300.8 1034.8 302.4 1036.3 302.6L1049.4 305.7 1034.7 322.6C1033 323.8 1033.6 325.6 1034.8 327.3 1035.8 328.3 1037.9 328.3 1039.3 326.5L1054.2 310.2 1058.4 323C1058.9 324.8 1061.2 325.5 1062.4 325.1 1064.2 324.5 1065 322.9 1064.4 321L1059.1 304.6 1071.2 292 1081.8 324.8C1082.4 326.7 1084 327.5 1085.8 326.9 1087.1 326.5 1088.5 324.7 1087.9 322.9L1076.1 286.3 1093.8 266.4 1100.1 296 1117.7 271.5 1126 297.1 1100.2 325.6C1098.8 327.4 1099.4 329.2 1100.4 330.2 1101.4 331.3 1103.4 331.3 1105 330.1L1128.1 303.7 1133.5 320.2 1122.2 333.3C1120.6 334.5 1120.6 336.5 1122.4 337.9 1123.4 338.9 1125.4 338.9 1126.8 337.1L1135.8 327.5 1142.7 348.8C1143.3 350.6 1144.9 351.4 1146.8 350.9S1149.4 348.7 1148.8 346.8L1141.9 325.5 1154.9 328.1C1157.1 328.7 1158.7 327.5 1158.9 326.1 1159.5 323.8 1158.3 322.2 1156.3 322.2L1139.6 318.2 1134.2 301.8 1168.4 309.5C1170.4 309.6 1172 308.4 1172.2 306.9 1172.9 304.7 1171.7 303.1 1169.6 303.1L1132 295.1 1123.8 269.5 1152.4 279.1 1140.1 251.4 1166.2 257.1 1178 293.6C1178.6 295.5 1180.8 296.1 1182 295.7 1183.9 295.1 1184.7 293.5 1184.1 291.7L1173.2 258.2 1190.6 262 1195.9 278.4C1196.5 280.2 1198.1 281 1200 280.4 1201.2 280.1 1202.6 278.2 1202 276.4L1197.9 263.6 1219.5 268.1C1221.7 268.7 1223.3 267.5 1223.4 265.5 1223.6 264 1223 262.2 1221 262.2L1199.1 257.2 1207.9 246.9C1209 245.9 1209 243.9 1208 242.9 1207 241.8 1205.5 241.6 1204.9 241.8 1204.3 242 1203.7 242.2 1203.3 243L1191.9 255.5 1174.7 252.3 1198.6 226.4C1199.4 224.8 1199.4 222.8 1198.4 221.7 1197.4 220.7 1196 220.5 1194.8 220.9 1194.2 221.1 1194.2 221.1 1193.8 221.9L1167.4 250.6 1141.4 245 1164.4 224.7 1133.9 221.8 1151.6 201.9 1189.8 209.7C1191.2 209.9 1193.1 209.4 1193.7 207.1 1193.9 205.7 1192.7 204.1 1191.1 203.3L1156.5 196.3 1168.6 183.7 1185.1 187C1186.8 187.8 1188.4 186.6 1189 184.4 1189.2 183 1188 181.4 1186.4 180.6L1173.5 178 1188.2 161.1C1189.8 159.9 1189.2 158.1 1188 156.5 1187.2 156.1 1185.8 155.9 1185.2 156.1 1184.6 156.3 1184 156.5 1183.6 157.3L1168.7 173.5 1164.5 160.8C1163.9 158.9 1161.7 158.3 1160.5 158.7L1160.5 158.7C1158.7 159.3 1157.8 160.9 1158.4 162.7L1163.8 179.2 1151.7 191.8 1141 158.9C1140.5 157.1 1138.8 156.3 1137 156.9S1134.4 159.1 1135 160.9L1146.8 197.4 1129 217.3 1122.8 187.7 1105.2 212.3 1096.9 186.7 1122.6 158.2C1124.1 156.4 1123.5 154.5 1122.5 153.5 1121.5 152.5 1119.4 152.5 1117.8 153.7L1094.5 179.4 1089.4 163.6 1100.6 150.5C1102.3 149.3 1102.3 147.3 1100.5 145.9 1099.5 144.8 1097.4 144.8 1095.8 146L1087 156.3 1080.1 135C1079.5 133.1 1077.9 132.3 1076.1 132.9S1073.4 135.1 1074 136.9L1080.9 158.3 1068 155.7C1067.2 155.3 1066.6 155.5 1066 155.7 1064.8 156.1 1064.4 156.9 1063.9 157.7 1063.3 159.9 1064.5 161.6 1066.5 161.6L1083.3 165.6 1088.6 182 1054.5 174.2C1053.9 174.4 1053.3 174.6 1052.7 174.8 1051.5 175.2 1051 176 1050.6 176.8 1050 179 1051.2 180.7 1053.2 180.7L1090.8 188.7 1099.1 214.3 1070.4 204.7 1082.8 232.3 1056.7 226.7 1044.9 190.1C1044.3 188.3 1042 187.7 1040.8 188.1 1039 188.7 1038.2 190.3 1038.8 192.1L1049.4 225 1032.3 221.8 1026.9 205.4C1026.3 203.5 1024.7 202.7 1022.9 203.3S1020.2 205.5 1020.8 207.3L1025 220.1 1003.4 215.7C1002.6 215.3 1001.9 215.5 1001.3 215.7 1000.7 215.9 999.7 216.9 999.5 218.3 999.3 219.7 999.9 221.5 1001.9 221.6ZM1081.9 215.1L1105.3 223 1119.6 202.9 1124.9 227.4 1149.2 229.6 1131 246.3 1141 268.6 1117.6 260.8 1103.2 280.9 1098.2 257 1073.7 254.1 1092 238.1 1081.9 215.1Z" fill="rgba(92, 157, 241, 1)"></path>
        <path d="M783.8 29.5L787.9 39.9 781.2 39.2C780.5 39 779.6 39.6 779.3 40.6 779.4 41.5 780 42.3 780.9 42.2L789.3 43.4 792.8 51.3 775.4 48.8C774.5 49 773.6 49.5 773.5 50.2 773.4 51.4 774 52.2 774.9 52.1L794.2 54.8 799.3 67.1 784.4 63.4 791.9 76.8 778.6 75.1 771 57.2C771.2 56.9 770.9 56.7 770.7 56.5 770.2 56.2 769.5 56 768.8 56.3 768.2 56.6 767.9 57.6 768 58.5L774.9 74.7 766.3 73.3 763 65.6C762.9 65.1 762.7 64.9 762.4 64.7 762.2 64.5 761.5 64.4 760.8 64.7 760.2 65 759.8 66 760.2 66.6L762.6 72.9 751.5 71.6C750.5 71.3 749.9 72.1 749.6 73 749.5 73.7 750 74.6 751.2 74.6L762.1 76.2 758 81.5C757.4 82.3 757.8 83.4 758.3 83.7 759.1 84.3 760 84.2 760.6 83.4L765.8 76.6 774.4 78 763.9 91.7C763.3 92.4 763.5 93.3 764.2 93.9 764.7 94.3 765.9 94.4 766.5 93.6L778.2 78.4 791.4 80.1 781 91 796.1 91.3 787.9 102 768.8 99.5C767.7 99.4 767.1 100.2 767 100.9 766.8 101.6 767.4 102.4 768.4 102.7L785.8 104.8 780.5 111.6 771.9 110.7C771 110.4 770.1 110.9 770.1 112.1 769.9 112.8 770.5 113.6 771.6 113.7L778.2 114.7 771.3 123.6C770.8 124.3 770.9 125.2 771.6 125.8S773.3 126.3 773.9 125.5L780.7 116.6 783.3 122.7C783.7 123.8 784.7 124.1 785.3 123.8 786.4 123.4 786.7 122.4 786.2 121.6L783 113.6 788.3 106.7 794.8 123C795.3 123.8 796.3 124.1 796.9 123.8 798 123.5 798.4 122.5 797.8 121.7L790.4 103.9 798.6 93.2 802.8 107.8 810.7 94.8 815.7 107.2 804.1 122.4C803.5 123.2 803.9 124.3 804.4 124.7 805.1 125.3 806 125.1 806.6 124.4L817.3 110.4 820.7 118.6 815.4 125.5C814.8 126.2 815 127.1 815.7 127.7 816.2 128.1 817.4 128.2 818 127.4L822.1 122.1 826.4 132.3C826.7 133.3 827.7 133.7 828.5 133.1 829.2 132.8 829.8 132 829.2 131.2L825.1 120.8 831.8 121.5C832.5 121.6 833.3 121.1 833.5 120.4 833.6 119.7 833.3 119 833 118.8 832.8 118.6 832.5 118.4 832.1 118.5L823.7 117.3 820.1 109.3 837.6 111.8C838.5 111.7 839.3 111.1 839.5 110.4 839.6 109.7 839.3 109.1 838.8 108.7 838.5 108.5 838.5 108.5 838.1 108.6L818.8 105.9 813.7 93.5 828.6 97.3 821.1 83.9 834.3 85.6 842 103.5C842.3 104.1 843 104.7 844.1 104.3 844.8 104 845.1 103.1 845 102.2L838 86 846.7 87.3 850 95.1C850.1 96 851.1 96.3 852.2 96 852.8 95.7 853.1 94.7 853 93.8L850.4 87.8 861.5 89C862.5 89.4 863 88.6 863.4 87.6 863.3 87.2 863 86.6 862.7 86.4 862.5 86.2 862.2 86 861.8 86L850.9 84.5 854.9 79.2C855.5 78.4 855.2 77.3 854.7 76.9L854.7 76.9C853.9 76.3 853 76.5 852.4 77.2L847.2 84.1 838.5 82.7 849 69C849.6 68.2 849.5 67.3 848.7 66.8S847.1 66.3 846.5 67.1L834.8 82.3 821.6 80.6 832 69.7 816.9 69.4 825.1 58.7 844.1 61.2C845.3 61.3 845.9 60.5 846 59.8 846.1 59.1 845.6 58.3 844.6 57.9L827.4 55.7 832.5 49 841 50C842 50.3 842.8 49.7 842.9 48.6 843 47.9 842.5 47 841.5 46.7L834.8 46 841.6 37.1C842.2 36.3 842.1 35.5 841.3 34.9S839.7 34.4 839.1 35.2L832.3 44.1 829.6 38C829.6 37.6 829.3 37.4 829.1 37.2 828.6 36.8 828.1 36.8 827.7 36.9 826.6 37.3 826.2 38.2 826.8 39.1L829.9 47.1 824.7 54 818.2 37.7C817.9 37.5 817.7 37.3 817.4 37.1 816.9 36.7 816.5 36.8 816 36.8 814.9 37.2 814.6 38.2 815.2 39L822.5 56.8 814.4 67.4 810.2 52.9 802.3 65.8 797.2 53.5 808.9 38.2C809.5 37.5 809.1 36.4 808.6 36 807.8 35.4 806.9 35.5 806.4 36.3L795.9 50 792.3 42 797.5 35.2C798.1 34.4 798 33.5 797.2 32.9S795.6 32.5 795 33.2L790.9 38.6 786.6 28.4C786.5 28 786.3 27.8 786 27.6 785.8 27.4 785.1 27.2 784.4 27.6 783.8 27.9 783.2 28.6 783.8 29.5ZM809.1 60.6L812.5 72.5 824.9 72.7 816.3 81.8 822.2 92.4 810.2 89.7 803.8 100.1 800.5 88.2 788.1 88 796.5 79.1 790.7 68.3 802.5 71.3 809.1 60.6Z" fill="rgba(250, 112, 154, 1)"></path>
    </g>
    <defs>
        <mask id="SvgjsMask3262">
            <rect width="1440" height="710" fill="#ffffff"></rect>
        </mask>
        <linearGradient x1="50%" y1="0%" x2="50%" y2="100%" gradientUnits="userSpaceOnUse" id="SvgjsLinearGradient3263">
            <stop stop-color="rgba(31, 31, 71, 1)" offset="0.46"></stop>
            <stop stop-color="#00459e" offset="1"></stop>
        </linearGradient>
        <filter id="SvgjsFilter3264">
            <feGaussianBlur stdDeviation="1"></feGaussianBlur>
        </filter>
    </defs>
</svg>